<?xml version="1.0" encoding="utf-8"?>
<svg viewBox="394.2 450 171 126" width="165.9px" height="122.1px" xmlns="http://www.w3.org/2000/svg">
  <g transform="matrix(4.338778, 0, 0, -4.338778, 550.6474, 545.103821)" id="g914" style="">
    <path id="path916" style="fill:#0b486d;fill-opacity:1;fill-rule:nonzero;stroke:none" d="m 0,0 c 0,0.003 0,0.007 0.001,0.01 0.067,0 0.135,0 0.202,10e-4 C 0.866,0.019 1.122,0.299 1.052,0.955 1.016,1.3 0.963,1.644 0.919,1.989 0.797,2.922 0.68,3.857 0.552,4.79 0.502,5.145 0.281,5.334 -0.028,5.321 -0.313,5.309 -0.523,5.099 -0.565,4.778 -0.739,3.467 -0.914,2.155 -1.084,0.844 -1.138,0.435 -0.909,0.117 -0.501,0.04 -0.337,0.009 -0.167,0.012 0,0 m -9.065,7.503 c -0.13,-0.03 -0.226,-0.05 -0.32,-0.076 -2.537,-0.684 -5.073,-1.37 -7.61,-2.049 -0.132,-0.035 -0.289,-0.036 -0.421,-0.001 -1.898,0.507 -3.794,1.023 -5.692,1.536 -0.721,0.195 -1.442,0.388 -2.219,0.598 V 7.072 c 0,-1.605 0.012,-3.21 -0.009,-4.814 -0.004,-0.338 0.115,-0.532 0.404,-0.642 0.774,-0.295 1.535,-0.645 2.332,-0.86 3.573,-0.966 7.161,-0.985 10.736,-0.012 0.808,0.22 1.582,0.565 2.368,0.859 0.311,0.117 0.45,0.313 0.442,0.686 -0.029,1.38 -0.011,2.76 -0.011,4.141 z m 5.282,3.467 c 0.002,0.019 0.003,0.038 0.004,0.057 -0.061,0.021 -0.121,0.046 -0.184,0.063 -4.349,1.186 -8.697,2.372 -13.047,3.552 -0.132,0.035 -0.291,0.027 -0.424,-0.009 -4.922,-1.339 -9.844,-2.683 -14.766,-4.028 -0.104,-0.028 -0.205,-0.064 -0.373,-0.118 0.168,-0.05 0.263,-0.08 0.36,-0.106 2.218,-0.602 4.438,-1.201 6.655,-1.805 2.695,-0.733 5.387,-1.472 8.082,-2.201 0.155,-0.042 0.34,-0.058 0.492,-0.017 4.352,1.177 8.701,2.362 13.051,3.547 0.072,0.02 0.14,0.058 0.288,0.12 h -13.232 c -0.56,0 -0.766,0.132 -0.756,0.482 0.009,0.334 0.216,0.463 0.75,0.463 H -4.15 Z M -0.485,9.867 C -1.503,9.592 -2.466,9.333 -3.428,9.072 -4.89,8.675 -6.349,8.27 -7.814,7.884 -8.051,7.821 -8.128,7.725 -8.126,7.477 -8.115,5.68 -8.133,3.884 -8.112,2.087 -8.106,1.563 -8.29,1.171 -8.745,0.961 -9.507,0.612 -10.271,0.244 -11.072,0.004 c -4.463,-1.339 -8.901,-1.224 -13.292,0.341 -0.441,0.157 -0.86,0.383 -1.276,0.603 -0.442,0.233 -0.648,0.593 -0.642,1.121 0.022,1.774 0.002,3.549 0.015,5.323 0.002,0.293 -0.067,0.422 -0.372,0.504 -2.559,0.681 -5.112,1.384 -7.667,2.08 -0.054,0.015 -0.108,0.031 -0.161,0.047 -0.237,0.072 -0.403,0.21 -0.4,0.475 0.003,0.266 0.176,0.404 0.41,0.469 0.811,0.225 1.624,0.445 2.436,0.666 4.794,1.305 9.587,2.615 14.385,3.905 0.284,0.077 0.626,0.061 0.913,-0.017 5.589,-1.504 11.173,-3.025 16.759,-4.54 0.306,-0.083 0.443,-0.26 0.441,-0.579 C 0.466,9.078 0.461,7.753 0.469,6.429 0.469,6.326 0.562,6.185 0.652,6.129 1.122,5.845 1.421,5.466 1.49,4.902 1.653,3.566 1.847,2.233 2.008,0.897 2.122,-0.046 1.425,-0.855 0.479,-0.902 c -0.336,-0.017 -0.674,-0.016 -1.01,0.003 -0.942,0.056 -1.607,0.905 -1.479,1.835 0.179,1.3 0.346,2.603 0.498,3.906 0.066,0.574 0.343,0.98 0.826,1.273 0.082,0.05 0.191,0.15 0.192,0.228 0.013,1.155 0.009,2.31 0.009,3.524"/>
  </g>
</svg>