<?xml version="1.0" encoding="utf-8"?>
<svg viewBox="394.232 870.418 165.924 122.145" width="165.924px" height="122.145px" xmlns="http://www.w3.org/2000/svg">
  <defs>
    <clipPath id="clipPath798" clipPathUnits="userSpaceOnUse">
      <path id="path796" d="M 0,1463.693 H 480 V 0 H 0 Z"/>
    </clipPath>
    <clipPath id="clipPath818" clipPathUnits="userSpaceOnUse">
      <path id="path816" d="m 342.644,797.443 h 63.337 v -72.425 h -63.337 z"/>
    </clipPath>
    <clipPath id="clipPath838" clipPathUnits="userSpaceOnUse">
      <path id="path836" d="M 0,1463.693 H 480 V 0 H 0 Z"/>
    </clipPath>
  </defs>
  <g clip-path="url(#clipPath798)" id="g794" transform="matrix(1.333333, 0, 0, -1.333333, 0, 1951.58667)">
    <g transform="translate(313.291,760.7587)" id="g800">
      <path id="path802" style="fill:#0b486d;fill-opacity:1;fill-rule:nonzero;stroke:none" d="m 0,0 -0.122,-1.587 -0.082,-0.529 -0.284,-0.325 -0.57,-0.081 -0.976,-0.082 -0.651,0.041 -0.977,0.041 -0.651,0.041 -0.936,-0.041 h -5.492 l -0.977,-0.041 h -1.627 l -0.651,-0.041 -0.977,-0.041 -0.651,-0.041 -0.935,0.082 -0.529,0.123 -0.326,0.325 -0.122,0.569 L -17.617,0 v 0.65 l 0.162,1.587 0.123,0.571 0.244,0.325 0.529,0.081 0.976,0.041 h 3.865 l 4.191,-0.122 h 0.651 l 0.977,0.041 h 2.237 l 0.977,0.081 h 0.651 L -1.099,3.174 -0.529,3.092 -0.244,2.808 -0.163,2.237 0,0.65 Z M 0,8.097 -0.122,6.55 -0.204,6.021 -0.488,5.695 -1.058,5.574 -2.034,5.533 h -0.651 l -0.977,0.081 h -7.079 l -0.977,-0.04 h -1.627 l -0.651,-0.041 -0.977,-0.041 -0.651,-0.04 -0.935,0.04 -0.529,0.122 -0.326,0.366 -0.122,0.57 -0.081,1.547 v 0.65 l 0.162,1.546 0.123,0.57 0.244,0.325 0.529,0.083 0.976,0.04 h 2.238 l 0.976,-0.04 h 2.279 l 2.563,-0.083 h 2.278 l 0.936,0.041 h 0.651 l 0.977,0.082 0.651,-0.04 0.935,-0.042 0.57,-0.082 0.285,-0.284 0.081,-0.57 L 0,8.747 Z"/>
    </g>
    <g transform="translate(420.1172,765.0712)" id="g804">
      <path id="path806" style="fill:#0b486d;fill-opacity:1;fill-rule:nonzero;stroke:none" d="m 0,0 c 0,-25.297 -20.507,-45.804 -45.805,-45.804 -25.297,0 -45.804,20.507 -45.804,45.804 0,25.297 20.507,45.805 45.804,45.805 C -20.507,45.805 0,25.297 0,0"/>
    </g>
    <g transform="translate(420.1172,765.0712)" id="g808">
      <path id="path810" style="fill:none;stroke:#ffffff;stroke-width:0.78299999;stroke-linecap:butt;stroke-linejoin:miter;stroke-miterlimit:2;stroke-dasharray:none;stroke-opacity:1" d="m 0,0 c 0,-25.297 -20.507,-45.804 -45.805,-45.804 -25.297,0 -45.804,20.507 -45.804,45.804 0,25.297 20.507,45.805 45.804,45.805 C -20.507,45.805 0,25.297 0,0 Z"/>
    </g>
    <g id="g812">
      <g id="g814"/>
      <g id="g826">
        <g style="opacity:0.14999402" id="g824" clip-path="url(#clipPath818)">
          <g id="g822" transform="translate(374.313,797.4432)">
            <path id="path820" style="fill:#ffffff;fill-opacity:1;fill-rule:nonzero;stroke:none" d="m 0,0 c 0,0 -8.041,-5.384 -31.669,-7.208 v -40.207 c 0,0 0.731,-10.682 15.834,-16.761 0,0 7.488,-3.444 15.835,-8.25 8.346,4.806 15.833,8.25 15.833,8.25 15.104,6.079 15.835,16.761 15.835,16.761 V -7.208 C 8.04,-5.384 0,0 0,0"/>
          </g>
        </g>
      </g>
    </g>
  </g>
  <text id="text830" style="font-variant: normal; font-weight: normal; font-stretch: normal; font-size: 12.5px; font-family: Avenir; writing-mode: lr-tb; fill: rgb(255, 255, 255); fill-opacity: 1; fill-rule: nonzero; stroke: none; white-space: pre;" transform="matrix(1.333333, 0, 0, 1.333333, 466.498629, 924.133037)"><tspan id="tspan828" y="0" x="0 8.8000002 13.2125 20.1625 23.1625 30.112499 34.525002 37.525002 43.549999">Athletics</tspan></text>
  <g clip-path="url(#clipPath838)" id="g834" transform="matrix(1.333333, 0, 0, -1.333333, 0, 1951.58667)">
    <g transform="translate(360.6191,758.4247)" id="g840">
      <path id="path842" style="fill:#ffffff;fill-opacity:1;fill-rule:nonzero;stroke:none" d="m 0,0 v -12.392 c 9.889,2.053 19.751,4.099 29.613,6.146 v 0.1 C 19.751,-4.099 9.889,-2.052 0,0 m -3.845,-2.929 c -0.58,-0.224 -1.115,-0.433 -1.652,-0.639 -0.451,-0.173 -0.813,-0.043 -0.986,0.349 -0.178,0.403 -0.036,0.725 0.434,0.941 0.33,0.152 0.671,0.282 1.071,0.449 -0.403,0.173 -0.741,0.308 -1.07,0.462 -0.493,0.232 -0.657,0.599 -0.472,1.013 0.169,0.376 0.565,0.496 1.053,0.299 0.533,-0.215 1.061,-0.443 1.642,-0.687 0,0.655 -0.002,1.256 0,1.855 0.003,0.775 0.343,1.059 1.096,0.903 6.395,-1.327 12.79,-2.659 19.185,-3.984 5.549,-1.15 11.1,-2.295 16.649,-3.44 0.687,-0.142 0.92,-0.379 0.87,-0.895 -0.04,-0.413 -0.27,-0.627 -0.67,-0.709 -1.74,-0.354 -3.477,-0.719 -5.215,-1.08 -8.457,-1.753 -16.914,-3.505 -25.37,-5.258 -1.84,-0.381 -3.678,-0.77 -5.518,-1.153 -0.66,-0.138 -1.021,0.149 -1.026,0.812 -0.005,0.602 -0.001,1.205 -0.001,1.866 -0.567,-0.225 -1.088,-0.432 -1.61,-0.638 -0.48,-0.19 -0.864,-0.075 -1.034,0.309 -0.19,0.426 -0.029,0.771 0.474,0.994 0.321,0.141 0.647,0.27 1.019,0.425 -0.399,0.172 -0.751,0.315 -1.095,0.475 -0.478,0.223 -0.632,0.574 -0.448,0.984 0.168,0.371 0.549,0.497 1.012,0.312 0.546,-0.219 1.086,-0.452 1.662,-0.693 z"/>
    </g>
    <g transform="translate(366.5664,747.5087)" id="g844">
      <path id="path846" style="fill:none;stroke:#ffffff;stroke-width:0.73799998;stroke-linecap:butt;stroke-linejoin:miter;stroke-miterlimit:2;stroke-dasharray:none;stroke-opacity:1" d="m 0,0 h -0.369 c -2.435,0 -4.426,1.992 -4.426,4.427 v 0.369 c 0,2.434 1.991,4.426 4.426,4.426 H 0 c 2.435,0 4.426,-1.992 4.426,-4.426 V 4.427 C 4.426,1.992 2.435,0 0,0 Z"/>
    </g>
    <g transform="translate(367.0718,749.1698)" id="g848">
      <path id="path850" style="fill:#ffffff;fill-opacity:1;fill-rule:nonzero;stroke:none" d="m 0,0 v 0.374 c 0.804,0.061 0.9,0.139 0.9,1.04 V 2.876 H -1.973 V 1.414 c 0,-0.909 0.077,-0.976 0.9,-1.04 V 0 h -2.94 v 0.374 c 0.846,0.084 0.909,0.128 0.909,1.04 v 3.077 c 0,0.911 -0.075,0.975 -0.909,1.037 v 0.374 h 2.94 V 5.528 c -0.803,-0.049 -0.9,-0.113 -0.9,-1.035 V 3.367 H 0.9 v 1.126 c 0,0.909 -0.109,0.989 -0.913,1.035 V 5.902 H 2.94 V 5.537 C 2.127,5.466 2.031,5.402 2.031,4.493 V 1.414 c 0,-0.901 0.076,-0.969 0.909,-1.04 L 2.94,0 Z"/>
    </g>
  </g>
</svg>