<?xml version="1.0" encoding="utf-8"?>
<svg viewBox="394.232 1426.424 165.924 122.145" width="165.924px" height="122.145px" xmlns="http://www.w3.org/2000/svg">
  <defs>
    <clipPath id="clipPath534" clipPathUnits="userSpaceOnUse">
      <path id="path532" d="M 0,1463.693 H 480 V 0 H 0 Z"/>
    </clipPath>
    <clipPath id="clipPath554" clipPathUnits="userSpaceOnUse">
      <path id="path552" d="m 342.644,380.44 h 63.337 v -72.426 h -63.337 z"/>
    </clipPath>
    <clipPath id="clipPath576" clipPathUnits="userSpaceOnUse">
      <path id="path574" d="M 0,1463.693 H 480 V 0 H 0 Z"/>
    </clipPath>
  </defs>
  <g clip-path="url(#clipPath534)" id="g530" transform="matrix(1.333333, 0, 0, -1.333333, 0, 1951.58667)">
    <g transform="translate(313.291,343.7548)" id="g536">
      <path id="path538" style="fill:#0b486d;fill-opacity:1;fill-rule:nonzero;stroke:none" d="m 0,0 -0.122,-1.587 -0.082,-0.529 -0.284,-0.325 -0.57,-0.081 -0.976,-0.082 -0.651,0.041 -0.977,0.041 -0.651,0.041 -0.936,-0.041 h -5.492 l -0.977,-0.041 h -1.627 l -0.651,-0.041 -0.977,-0.041 -0.651,-0.041 -0.935,0.082 -0.529,0.123 -0.326,0.325 -0.122,0.569 L -17.617,0 v 0.65 l 0.162,1.587 0.123,0.571 0.244,0.325 0.529,0.081 0.976,0.041 h 3.865 l 4.191,-0.122 h 0.651 l 0.977,0.041 h 2.237 l 0.977,0.081 h 0.651 L -1.099,3.174 -0.529,3.092 -0.244,2.808 -0.163,2.237 0,0.65 Z M 0,8.097 -0.122,6.55 -0.204,6.021 -0.488,5.695 -1.058,5.574 -2.034,5.533 h -0.651 l -0.977,0.081 h -7.079 l -0.977,-0.04 h -1.627 l -0.651,-0.041 -0.977,-0.041 -0.651,-0.04 -0.935,0.04 -0.529,0.122 -0.326,0.366 -0.122,0.57 -0.081,1.547 v 0.65 l 0.162,1.546 0.123,0.57 0.244,0.325 0.529,0.083 0.976,0.04 h 2.238 l 0.976,-0.04 h 2.279 l 2.563,-0.083 h 2.278 l 0.936,0.041 h 0.651 l 0.977,0.082 0.651,-0.04 0.935,-0.042 0.57,-0.082 0.285,-0.284 0.081,-0.57 L 0,8.747 Z"/>
    </g>
    <g transform="translate(420.1172,348.0673)" id="g540">
      <path id="path542" style="fill:#0b486d;fill-opacity:1;fill-rule:nonzero;stroke:none" d="m 0,0 c 0,-25.297 -20.507,-45.804 -45.805,-45.804 -25.297,0 -45.804,20.507 -45.804,45.804 0,25.297 20.507,45.805 45.804,45.805 C -20.507,45.805 0,25.297 0,0"/>
    </g>
    <g transform="translate(420.1172,348.0673)" id="g544">
      <path id="path546" style="fill:none;stroke:#ffffff;stroke-width:0.78299999;stroke-linecap:butt;stroke-linejoin:miter;stroke-miterlimit:2;stroke-dasharray:none;stroke-opacity:1" d="m 0,0 c 0,-25.297 -20.507,-45.804 -45.805,-45.804 -25.297,0 -45.804,20.507 -45.804,45.804 0,25.297 20.507,45.805 45.804,45.805 C -20.507,45.805 0,25.297 0,0 Z"/>
    </g>
    <g id="g548">
      <g id="g550"/>
      <g id="g562">
        <g style="opacity:0.14999402" id="g560" clip-path="url(#clipPath554)">
          <g id="g558" transform="translate(374.313,380.4393)">
            <path id="path556" style="fill:#ffffff;fill-opacity:1;fill-rule:nonzero;stroke:none" d="m 0,0 c 0,0 -8.041,-5.384 -31.669,-7.208 v -40.207 c 0,0 0.731,-10.682 15.834,-16.761 0,0 7.488,-3.444 15.835,-8.25 8.346,4.806 15.833,8.25 15.833,8.25 15.104,6.079 15.835,16.761 15.835,16.761 V -7.208 C 8.04,-5.384 0,0 0,0"/>
          </g>
        </g>
      </g>
    </g>
  </g>
  <text id="text568" style="font-variant: normal; font-weight: normal; font-stretch: normal; font-size: 12.5px; font-family: Avenir; writing-mode: lr-tb; fill: rgb(255, 255, 255); fill-opacity: 1; fill-rule: nonzero; stroke: none; white-space: pre;" transform="matrix(1.333333, 0, 0, 1.333333, 474.26169, 1472.268949)"><tspan id="tspan564" y="0" x="0 8.8000002 15.2875 19.4625 26.4125 33.362499">Career</tspan><tspan id="tspan566" y="12.9125" x="-13.7875 -6.375 -2.2 4.75 12.3875 18.875 23.275 29.762501 34.174999 37.174999 44.599998">Preparation</tspan></text>
  <g clip-path="url(#clipPath576)" id="g572" transform="matrix(1.333333, 0, 0, -1.333333, 0, 1951.58667)">
    <path id="path578" style="fill:#ffffff;fill-opacity:1;fill-rule:nonzero;stroke:none" d="m 364.336,318.465 h 2.302 v 6.965 h -2.302 z m 13.492,5.931 c 0.155,-0.404 0.339,-0.767 0.433,-1.153 0.267,-1.102 -0.408,-1.723 -1.326,-1.697 -1.416,0.04 -2.835,0.011 -4.252,0.011 -0.07,0 -0.141,-0.005 -0.209,0.004 -0.219,0.029 -0.375,0.194 -0.372,0.385 0.003,0.202 0.148,0.353 0.374,0.379 0.076,0.01 0.153,0.008 0.23,0.008 h 4.274 c 0.46,0 0.601,0.159 0.549,0.616 -0.105,0.936 -0.905,1.687 -1.848,1.708 -0.699,0.017 -1.397,0.014 -2.095,0.003 -0.274,-0.005 -0.513,0.059 -0.76,0.177 -1.72,0.821 -3.457,0.81 -5.204,0.078 -0.142,-0.06 -0.193,-0.135 -0.192,-0.293 0.006,-1.725 0.004,-3.449 0.004,-5.174 0,-0.073 0.006,-0.146 0.01,-0.23 h 0.191 c 2.926,0 5.851,-0.002 8.777,0.002 0.885,10e-4 1.626,0.326 2.21,1.006 1.118,1.304 2.244,2.601 3.367,3.901 l 2.315,2.678 c 0.378,0.438 0.306,0.888 -0.189,1.189 -0.662,0.401 -1.348,0.351 -1.982,-0.155 -0.939,-0.748 -1.875,-1.5 -2.813,-2.25 -0.511,-0.409 -1.024,-0.819 -1.492,-1.193 m -10.395,-5.948 c 0,-0.137 0.005,-0.247 -10e-4,-0.357 -0.013,-0.268 -0.154,-0.426 -0.417,-0.428 -1.019,-0.007 -2.039,-0.007 -3.058,0 -0.254,0.002 -0.393,0.156 -0.415,0.41 -0.004,0.055 -10e-4,0.111 -10e-4,0.167 -10e-4,2.479 -10e-4,4.957 0,7.436 0,0.412 0.125,0.539 0.533,0.539 0.936,0.001 1.871,0.001 2.807,0.001 0.408,-0.001 0.516,-0.096 0.569,-0.501 0.371,0.109 0.737,0.242 1.114,0.324 1.567,0.337 3.09,0.226 4.557,-0.464 0.162,-0.077 0.356,-0.118 0.536,-0.122 0.642,-0.015 1.284,-10e-4 1.926,-0.008 0.535,-0.006 1.036,-0.143 1.478,-0.453 0.119,-0.083 0.195,-0.068 0.305,0.021 1.428,1.152 2.861,2.299 4.294,3.447 0.877,0.702 1.921,0.787 2.821,0.23 0.954,-0.589 1.112,-1.587 0.382,-2.432 -1.888,-2.188 -3.776,-4.376 -5.666,-6.562 -0.734,-0.849 -1.669,-1.25 -2.788,-1.249 -2.597,0.004 -5.195,10e-4 -7.792,10e-4 z"/>
    <path id="path580" style="fill:#ffffff;fill-opacity:1;fill-rule:nonzero;stroke:none" d="m 374.806,333.987 h -0.744 v -0.765 h 0.744 z m -1.531,3.916 h 2.315 v 0.744 h -2.315 z m 5.034,-7.789 v 3.244 c -0.893,-0.28 -1.801,-0.073 -2.707,-0.167 0,-0.11 0.004,-0.214 -10e-4,-0.316 -0.014,-0.289 -0.16,-0.429 -0.451,-0.431 -0.481,-0.002 -0.963,-0.002 -1.445,0 -0.278,0.002 -0.425,0.143 -0.441,0.419 -0.006,0.109 -0.001,0.219 -0.001,0.329 -0.918,0.089 -1.829,-0.113 -2.71,0.164 v -3.242 z m -2.707,3.888 c 0.654,0 1.274,-0.004 1.895,10e-4 0.718,0.006 1.205,0.495 1.21,1.215 0.004,0.572 0.001,1.144 0.001,1.716 -0.001,0.053 -0.01,0.107 -0.014,0.161 h -8.536 c 0,-0.656 -0.008,-1.296 0.002,-1.937 0.01,-0.649 0.492,-1.133 1.142,-1.153 0.369,-0.011 0.74,-0.003 1.109,-0.003 h 0.852 c 0,0.124 -0.004,0.226 0,0.33 0.013,0.282 0.148,0.435 0.424,0.441 0.495,0.011 0.991,0.01 1.486,0 0.278,-0.006 0.414,-0.157 0.428,-0.438 0.005,-0.103 10e-4,-0.206 10e-4,-0.333 m -3.112,3.89 c 0,0.351 -0.001,0.685 0,1.018 10e-4,0.408 0.126,0.532 0.54,0.532 0.935,10e-4 1.871,10e-4 2.807,0 0.411,-0.001 0.537,-0.126 0.538,-0.535 10e-4,-0.327 0,-0.654 0,-1.003 0.089,-0.005 0.163,-0.012 0.236,-0.012 0.775,-10e-4 1.55,0 2.326,-10e-4 0.418,0 0.557,-0.133 0.555,-0.548 -0.005,-0.789 0.008,-1.579 -0.034,-2.367 -0.014,-0.271 -0.169,-0.535 -0.256,-0.804 -0.04,-0.122 -0.1,-0.247 -0.101,-0.371 -0.007,-1.306 -0.004,-2.612 -0.004,-3.917 -10e-4,-0.441 -0.116,-0.555 -0.56,-0.555 -2.738,-0.001 -5.475,-0.001 -8.213,0 -0.444,0 -0.556,0.112 -0.556,0.558 0,1.312 0.002,2.626 -0.003,3.938 0,0.099 -0.021,0.214 -0.074,0.294 -0.23,0.345 -0.315,0.727 -0.317,1.132 -0.004,0.712 -0.003,1.425 0,2.137 10e-4,0.358 0.15,0.503 0.515,0.503 0.782,0.002 1.565,10e-4 2.346,10e-4 z"/>
  </g>
</svg>