<?xml version="1.0" encoding="utf-8"?>
<svg viewBox="394.232 1009.57 165.924 122.147" width="165.924px" height="122.147px" xmlns="http://www.w3.org/2000/svg">
  <defs>
    <clipPath id="clipPath720" clipPathUnits="userSpaceOnUse">
      <path id="path718" d="M 0,1463.693 H 480 V 0 H 0 Z"/>
    </clipPath>
    <clipPath id="clipPath740" clipPathUnits="userSpaceOnUse">
      <path id="path738" d="m 342.644,693.08 h 63.337 v -72.426 h -63.337 z"/>
    </clipPath>
    <clipPath id="clipPath762" clipPathUnits="userSpaceOnUse">
      <path id="path760" d="M 0,1463.693 H 480 V 0 H 0 Z"/>
    </clipPath>
  </defs>
  <g clip-path="url(#clipPath720)" id="g716" transform="matrix(1.333333, 0, 0, -1.333333, 0, 1951.58667)">
    <g transform="translate(313.291,656.3954)" id="g722">
      <path id="path724" style="fill:#0b486d;fill-opacity:1;fill-rule:nonzero;stroke:none" d="m 0,0 -0.122,-1.587 -0.082,-0.529 -0.284,-0.325 -0.57,-0.081 -0.976,-0.082 -0.651,0.041 -0.977,0.041 -0.651,0.04 -0.936,-0.04 h -5.492 l -0.977,-0.041 h -1.627 l -0.651,-0.041 -0.977,-0.041 -0.651,-0.041 -0.935,0.082 -0.529,0.122 -0.326,0.326 -0.122,0.569 L -17.617,0 v 0.65 l 0.162,1.587 0.123,0.57 0.244,0.326 0.529,0.081 0.976,0.041 h 3.865 l 4.191,-0.122 h 0.651 l 0.977,0.04 h 2.237 l 0.977,0.082 h 0.651 L -1.099,3.173 -0.529,3.092 -0.244,2.807 -0.163,2.237 0,0.65 Z M 0,8.097 -0.122,6.55 -0.204,6.021 -0.488,5.695 -1.058,5.574 -2.034,5.533 h -0.651 l -0.977,0.081 h -7.079 l -0.977,-0.04 h -1.627 l -0.651,-0.041 -0.977,-0.041 -0.651,-0.041 -0.935,0.041 -0.529,0.122 -0.326,0.366 -0.122,0.57 -0.081,1.547 v 0.65 l 0.162,1.546 0.123,0.57 0.244,0.325 0.529,0.082 0.976,0.041 h 2.238 l 0.976,-0.041 h 2.279 l 2.563,-0.082 h 2.278 l 0.936,0.041 h 0.651 l 0.977,0.082 0.651,-0.041 0.935,-0.041 0.57,-0.082 0.285,-0.284 0.081,-0.57 L 0,8.747 Z"/>
    </g>
    <g transform="translate(420.1172,660.7079)" id="g726">
      <path id="path728" style="fill:#0b486d;fill-opacity:1;fill-rule:nonzero;stroke:none" d="m 0,0 c 0,-25.297 -20.507,-45.805 -45.805,-45.805 -25.297,0 -45.804,20.508 -45.804,45.805 0,25.297 20.507,45.805 45.804,45.805 C -20.507,45.805 0,25.297 0,0"/>
    </g>
    <g transform="translate(420.1172,660.7079)" id="g730">
      <path id="path732" style="fill:none;stroke:#ffffff;stroke-width:0.78299999;stroke-linecap:butt;stroke-linejoin:miter;stroke-miterlimit:2;stroke-dasharray:none;stroke-opacity:1" d="m 0,0 c 0,-25.297 -20.507,-45.805 -45.805,-45.805 -25.297,0 -45.804,20.508 -45.804,45.805 0,25.297 20.507,45.805 45.804,45.805 C -20.507,45.805 0,25.297 0,0 Z"/>
    </g>
    <g id="g734">
      <g id="g736"/>
      <g id="g748">
        <g style="opacity:0.14999402" id="g746" clip-path="url(#clipPath740)">
          <g id="g744" transform="translate(374.313,693.08)">
            <path id="path742" style="fill:#ffffff;fill-opacity:1;fill-rule:nonzero;stroke:none" d="m 0,0 c 0,0 -8.041,-5.384 -31.669,-7.208 v -40.207 c 0,0 0.731,-10.682 15.834,-16.761 0,0 7.488,-3.444 15.835,-8.25 8.346,4.806 15.833,8.25 15.833,8.25 15.104,6.079 15.835,16.761 15.835,16.761 V -7.208 C 8.04,-5.384 0,0 0,0"/>
          </g>
        </g>
      </g>
    </g>
  </g>
  <text id="text754" style="font-variant: normal; font-weight: normal; font-stretch: normal; font-size: 12.5px; font-family: Avenir; writing-mode: lr-tb; fill: rgb(255, 255, 255); fill-opacity: 1; fill-rule: nonzero; stroke: none; white-space: pre;" transform="matrix(1.333333, 0, 0, 1.333333, 461.574232, 1056.151827)"><tspan id="tspan750" y="0" x="0 8.8000002 11.8 18.75 26.387501 31.7125 35.1875 41.674999 48.625">Clubs and</tspan><tspan id="tspan752" y="12.9125" x="-10.775 -0.34999999 3.825 11.4625 17.950001 24.9 27.9 33.450001 39.9375 44.349998 47.349998 54.775002 61.724998">Organizations</tspan></text>
  <g clip-path="url(#clipPath762)" id="g758" transform="matrix(1.333333, 0, 0, -1.333333, 0, 1951.58667)">
    <g transform="translate(367.27,645.5917)" id="g764">
      <path id="path766" style="fill:#ffffff;fill-opacity:1;fill-rule:nonzero;stroke:none" d="m 0,0 c -1.345,-0.004 -2.475,-1.096 -2.475,-2.392 0,-1.459 1.079,-2.545 2.523,-2.542 1.289,0.003 2.413,1.139 2.413,2.439 C 2.46,-1.107 1.365,0.004 0,0 m 3.848,-11.968 c 0.013,0.048 0.023,0.068 0.023,0.088 0,0.796 0.008,1.593 -0.005,2.39 -0.012,0.739 -0.207,1.431 -0.609,2.057 -0.96,1.494 -2.72,2.143 -4.409,1.629 -1.646,-0.501 -2.726,-2.005 -2.733,-3.723 -0.002,-0.726 0.01,-1.452 -0.006,-2.177 -0.005,-0.227 0.074,-0.269 0.281,-0.268 2.411,0.007 4.823,0.004 7.235,0.004 z m -5.499,6.791 c -1.099,0.726 -1.634,1.781 -1.499,3.128 0.078,0.786 0.466,1.433 1.051,1.967 1.091,0.997 2.898,1.045 4.062,0.099 C 2.367,-0.312 2.682,-0.71 2.889,-1.189 3.094,-1.667 3.18,-2.165 3.149,-2.686 3.119,-3.209 2.961,-3.692 2.684,-4.131 2.411,-4.563 2.043,-4.913 1.628,-5.181 2.05,-5.445 2.469,-5.659 2.832,-5.944 c 1.17,-0.923 1.719,-2.162 1.745,-3.637 0.016,-0.86 0.005,-1.721 0.003,-2.581 -0.001,-0.397 -0.111,-0.514 -0.508,-0.514 -2.725,-0.004 -5.449,-0.004 -8.174,-10e-4 -0.377,10e-4 -0.473,0.109 -0.473,0.492 -10e-4,0.911 -0.004,1.822 0,2.732 0.007,1.402 0.571,2.549 1.644,3.432 0.385,0.317 0.834,0.554 1.28,0.844"/>
    </g>
    <g transform="translate(381.3604,645.5907)" id="g768">
      <path id="path770" style="fill:#ffffff;fill-opacity:1;fill-rule:nonzero;stroke:none" d="m 0,0 c -1.433,0.027 -2.429,-1.184 -2.471,-2.323 -0.055,-1.523 1.117,-2.556 2.343,-2.611 1.33,-0.059 2.576,0.966 2.581,2.438 C 2.458,-1.059 1.333,0.023 0,0 m -3.877,-11.946 c 0.051,-0.011 0.072,-0.018 0.093,-0.018 2.496,-10e-4 4.992,-10e-4 7.489,-0.005 0.155,0 0.171,0.078 0.17,0.2 -0.002,0.683 0.004,1.367 -0.003,2.048 -0.003,0.256 -0.017,0.513 -0.054,0.766 -0.221,1.516 -1.312,2.804 -2.891,3.203 -0.776,0.195 -1.54,0.156 -2.282,-0.125 -1.629,-0.618 -2.578,-2.156 -2.526,-3.716 0.025,-0.731 0.004,-1.465 0.004,-2.197 z m 5.442,6.728 c 0.726,-0.28 1.304,-0.674 1.786,-1.196 0.755,-0.82 1.173,-1.794 1.205,-2.909 0.028,-0.982 0.01,-1.963 0.009,-2.945 -0.001,-0.262 -0.107,-0.374 -0.366,-0.401 -0.085,-0.01 -0.171,-0.008 -0.256,-0.009 h -7.854 c -0.627,0 -0.68,0.055 -0.68,0.685 v 2.389 c 0,1.948 1.073,3.565 2.871,4.327 0.025,0.01 0.049,0.025 0.118,0.06 -1.234,0.845 -1.775,1.989 -1.501,3.451 0.137,0.729 0.54,1.326 1.124,1.786 C -0.784,0.959 0.87,0.934 2.017,-0.029 2.85,-0.728 3.229,-1.653 3.145,-2.736 3.061,-3.81 2.491,-4.612 1.565,-5.218"/>
    </g>
    <g transform="translate(374.6426,649.0819)" id="g772">
      <path id="path774" style="fill:#ffffff;fill-opacity:1;fill-rule:nonzero;stroke:none" d="m 0,0 c -0.018,0.017 -0.022,0.025 -0.028,0.025 -0.882,0.005 -1.764,0.01 -2.645,0.008 -0.041,0 -0.115,-0.066 -0.117,-0.105 -0.012,-0.197 -0.006,-0.394 -0.006,-0.6 l 2.796,0 z m 2.826,-2.769 c 0,0.899 0.002,1.787 -0.006,2.674 C 2.819,-0.05 2.731,0.032 2.683,0.032 2.086,0.041 1.489,0.036 0.892,0.04 0.769,0.041 0.731,-0.008 0.735,-0.125 0.742,-0.353 0.737,-0.58 0.737,-0.808 0.736,-1.274 0.627,-1.382 0.157,-1.383 c -0.918,0 -1.835,-0.003 -2.752,0.004 -0.158,0.001 -0.211,-0.041 -0.205,-0.204 0.012,-0.326 0.015,-0.654 -0.001,-0.98 -0.009,-0.187 0.06,-0.226 0.231,-0.225 0.988,0.007 1.979,-0.032 2.965,0.017 0.592,0.029 1.051,-0.107 1.4,-0.591 0.079,-0.109 0.193,-0.19 0.313,-0.305 0.029,0.268 0.011,0.497 0.084,0.693 0.102,0.275 0.402,0.127 0.634,0.205 m -7.706,1.181 c 0.183,0.192 0.346,0.349 0.492,0.521 0.221,0.258 0.465,0.456 0.835,0.392 0.01,-0.002 0.022,0.015 0.05,0.035 0,0.299 -10e-4,0.611 0.001,0.922 0.002,0.331 0.117,0.446 0.451,0.446 0.931,0.001 1.862,0 2.793,0 H 0 v 1.388 h -5.594 v -2.788 c 0.231,-0.041 0.521,0.084 0.625,-0.188 0.077,-0.203 0.058,-0.443 0.089,-0.728 m 1.348,0.257 c -0.131,-0.072 -0.237,-0.105 -0.308,-0.173 -0.378,-0.366 -0.749,-0.739 -1.118,-1.114 -0.116,-0.117 -0.231,-0.212 -0.41,-0.148 -0.193,0.07 -0.248,0.224 -0.252,0.406 -0.005,0.269 -0.008,0.54 0,0.81 0.003,0.133 -0.046,0.181 -0.173,0.168 -0.057,-0.006 -0.114,-0.002 -0.171,0.002 -0.226,0.019 -0.347,0.145 -0.348,0.374 -10e-4,1.158 -10e-4,2.318 0,3.477 0.001,0.227 0.121,0.353 0.347,0.378 0.063,0.006 0.128,0.004 0.192,0.004 H 0.201 C 0.615,2.853 0.735,2.733 0.736,2.32 0.738,1.865 0.744,1.41 0.733,0.955 0.729,0.78 0.777,0.722 0.958,0.724 1.669,0.733 2.38,0.729 3.092,0.728 3.429,0.727 3.549,0.604 3.55,0.262 c 0.001,-1.088 0,-2.176 0,-3.264 0,-0.37 -0.116,-0.499 -0.481,-0.487 C 2.865,-3.482 2.812,-3.555 2.823,-3.745 2.838,-3.986 2.82,-4.229 2.829,-4.471 2.836,-4.644 2.793,-4.787 2.63,-4.859 2.453,-4.937 2.3,-4.877 2.167,-4.742 c -0.35,0.353 -0.709,0.698 -1.052,1.058 -0.134,0.14 -0.272,0.196 -0.466,0.195 -1.223,-0.009 -2.446,-0.005 -3.67,-0.004 -0.377,0 -0.494,0.115 -0.497,0.499 -0.002,0.455 0,0.91 -0.001,1.365 0,0.076 -0.006,0.153 -0.013,0.298"/>
    </g>
  </g>
</svg>