<?xml version="1.0" encoding="utf-8"?>
<svg viewBox="394.2 450 171 126" width="165.9px" height="122.1px" xmlns="http://www.w3.org/2000/svg">
  <defs>
    <clipPath id="clipPath500" clipPathUnits="userSpaceOnUse">
      <path id="path498" d="M 0,1463.693 H 480 V 0 H 0 Z"/>
    </clipPath>
  </defs>
  <g id="g494" transform="matrix(5.299449, 0, 0, -5.303411, -1505.939087, 2804.021729)" style="">
    <g clip-path="url(#clipPath500)" id="g496">
      <g transform="translate(368.8877,424.9921)" id="g502">
        <path id="path504" style="fill:#0b486d;fill-opacity:1;fill-rule:nonzero;stroke:none" d="M 0,0 C 0.691,-0.081 1.241,-0.38 1.689,-0.917 2.137,-0.403 2.68,-0.069 3.396,-0.002 2.646,0.681 2.339,1.503 2.541,2.479 2.665,3.082 2.994,3.569 3.487,3.939 4.458,4.666 5.883,4.547 6.726,3.692 7.539,2.869 7.874,1.233 6.544,0 7.23,-0.077 7.78,-0.386 8.226,-0.918 c 0.449,0.524 1,0.843 1.709,0.919 C 9.244,0.616 8.937,1.364 9.039,2.256 9.11,2.887 9.397,3.42 9.889,3.83 c 1.036,0.863 2.495,0.785 3.415,-0.176 0.851,-0.889 1.026,-2.52 -0.2,-3.632 0.233,-0.069 0.482,-0.112 0.703,-0.213 0.938,-0.432 1.45,-1.164 1.497,-2.205 0.01,-0.226 0.007,-0.453 0.002,-0.678 -0.008,-0.317 -0.228,-0.535 -0.53,-0.538 -0.314,-0.003 -0.526,0.215 -0.546,0.542 -0.021,0.345 0,0.706 -0.093,1.032 -0.157,0.543 -0.559,0.858 -1.13,0.932 -0.291,0.037 -0.582,0.057 -0.819,0.269 -0.48,0.431 -0.488,1.122 0.006,1.539 0.235,0.199 0.46,0.394 0.585,0.688 0.268,0.629 0.042,1.35 -0.554,1.726 C 11.659,3.474 10.898,3.354 10.464,2.842 9.906,2.183 10.004,1.331 10.699,0.803 11.23,0.397 11.33,-0.235 10.929,-0.72 10.736,-0.953 10.475,-1.062 10.174,-1.076 9.501,-1.109 8.984,-1.499 8.827,-2.119 8.778,-2.311 8.79,-2.519 8.779,-2.72 8.771,-2.859 8.785,-3.002 8.767,-3.141 8.729,-3.436 8.505,-3.619 8.21,-3.611 7.926,-3.604 7.719,-3.413 7.698,-3.116 7.68,-2.872 7.694,-2.627 7.675,-2.384 c -0.053,0.697 -0.537,1.199 -1.233,1.28 -0.32,0.037 -0.628,0.083 -0.866,0.335 -0.408,0.43 -0.377,1.111 0.09,1.477 0.3,0.236 0.543,0.5 0.647,0.882 C 6.477,2.191 6.187,2.848 5.601,3.169 5.074,3.458 4.336,3.322 3.943,2.864 3.365,2.189 3.461,1.346 4.183,0.783 4.7,0.38 4.786,-0.246 4.382,-0.728 4.187,-0.96 3.925,-1.062 3.625,-1.077 2.93,-1.112 2.388,-1.546 2.269,-2.2 2.22,-2.474 2.246,-2.761 2.236,-3.041 2.225,-3.368 2.024,-3.596 1.732,-3.61 c -0.33,-0.017 -0.567,0.2 -0.583,0.543 -0.008,0.189 -0.005,0.379 -0.001,0.568 0.015,0.685 -0.536,1.361 -1.256,1.4 -0.302,0.017 -0.591,0.073 -0.824,0.3 -0.442,0.433 -0.42,1.131 0.067,1.515 0.274,0.216 0.51,0.452 0.615,0.797 0.231,0.751 -0.205,1.561 -0.954,1.763 C -1.962,3.481 -2.763,3 -2.928,2.229 -3.055,1.636 -2.854,1.162 -2.373,0.8 c 0.524,-0.394 0.624,-1.029 0.234,-1.51 -0.192,-0.236 -0.449,-0.35 -0.751,-0.365 -0.569,-0.03 -1.018,-0.268 -1.263,-0.793 -0.09,-0.193 -0.11,-0.422 -0.136,-0.638 -0.021,-0.181 10e-4,-0.367 -0.006,-0.55 -0.012,-0.324 -0.257,-0.558 -0.565,-0.55 -0.307,0.007 -0.523,0.237 -0.527,0.564 -0.007,0.507 -0.029,1.018 0.174,1.499 0.297,0.71 0.947,1.407 2.067,1.549 -0.621,0.553 -0.945,1.228 -0.909,2.041 0.037,0.812 0.395,1.472 1.068,1.932 1.049,0.719 2.438,0.533 3.264,-0.384 C 1.074,2.71 1.226,1.09 0,0"/>
      </g>
      <g transform="translate(376.8945,432.3055)" id="g506">
        <path id="path508" style="fill:#0b486d;fill-opacity:1;fill-rule:nonzero;stroke:none" d="m 0,0 c -0.288,-0.161 -0.553,-0.354 -0.849,-0.464 -0.534,-0.2 -1.061,-0.111 -1.546,0.182 -0.869,0.522 -1.739,1.044 -2.598,1.583 -0.772,0.484 -1.019,1.332 -0.642,2.112 0.36,0.741 1.292,1.102 2.041,0.744 0.494,-0.236 0.955,-0.543 1.43,-0.819 0.084,-0.049 0.166,-0.101 0.268,-0.162 0.186,0.321 0.371,0.634 0.551,0.949 0.238,0.414 0.54,0.769 0.938,1.037 0.472,0.319 0.99,0.496 1.559,0.527 C 1.211,5.693 1.271,5.697 1.365,5.703 0.642,6.354 0.332,7.145 0.441,8.079 0.509,8.658 0.74,9.183 1.168,9.586 2.259,10.612 3.742,10.632 4.854,9.623 5.427,9.103 5.677,8.422 5.658,7.649 5.638,6.878 5.311,6.243 4.731,5.713 5.013,5.696 5.27,5.701 5.52,5.664 7.069,5.431 8.16,4.181 8.172,2.611 8.184,1.242 8.177,-0.127 8.172,-1.496 8.171,-1.652 8.147,-1.813 8.105,-1.965 7.915,-2.65 7.379,-3.087 6.68,-3.143 6.051,-3.192 5.4,-2.814 5.138,-2.203 5.044,-1.985 4.999,-1.731 4.996,-1.493 4.98,-0.447 4.987,0.598 4.99,1.643 4.991,2.098 5.352,2.363 5.747,2.209 5.962,2.125 6.083,1.924 6.083,1.631 6.085,0.622 6.084,-0.386 6.084,-1.395 c 0,-0.061 -0.002,-0.122 0.002,-0.183 0.017,-0.281 0.228,-0.483 0.501,-0.48 0.276,0.003 0.479,0.203 0.49,0.489 0.006,0.165 0.003,0.33 0.003,0.495 0,1.204 0.001,2.408 -0.001,3.612 C 7.077,3.758 6.237,4.596 5.015,4.603 4.765,4.604 4.511,4.595 4.266,4.632 3.846,4.695 3.568,4.948 3.463,5.361 3.361,5.765 3.47,6.119 3.799,6.377 4.181,6.677 4.487,7.014 4.557,7.52 4.651,8.203 4.289,8.842 3.623,9.145 3.066,9.398 2.299,9.237 1.905,8.785 1.436,8.246 1.357,7.476 1.737,6.917 1.855,6.744 2.015,6.589 2.184,6.463 2.56,6.182 2.727,5.764 2.604,5.321 2.489,4.906 2.133,4.645 1.661,4.614 1.357,4.596 1.046,4.598 0.753,4.526 0.235,4.4 -0.134,4.056 -0.398,3.598 -0.665,3.138 -0.928,2.676 -1.195,2.216 -1.405,1.853 -1.697,1.778 -2.056,1.996 -2.684,2.376 -3.31,2.757 -3.937,3.138 -4.122,3.25 -4.312,3.251 -4.49,3.134 -4.676,3.012 -4.766,2.823 -4.701,2.611 -4.661,2.482 -4.569,2.338 -4.458,2.268 -3.58,1.714 -2.692,1.174 -1.805,0.635 -1.464,0.429 -1.071,0.498 -0.818,0.808 -0.529,1.163 -0.253,1.529 0.033,1.887 0.105,1.977 0.182,2.072 0.277,2.131 0.636,2.354 1.089,2.092 1.092,1.65 1.1,0.244 1.097,-1.161 1.093,-2.567 1.092,-2.882 0.848,-3.11 0.541,-3.106 0.233,-3.103 0.004,-2.865 0.002,-2.53 -0.002,-1.741 0,-0.953 0,-0.164 Z"/>
      </g>
      <g transform="translate(370.793,442.661)" id="g510">
        <path id="path512" style="fill:#0b486d;fill-opacity:1;fill-rule:nonzero;stroke:none" d="m 0,0 c 1.846,0 3.692,0 5.539,-0.001 0.367,0 0.61,-0.233 0.598,-0.567 C 6.128,-0.818 5.935,-1.036 5.686,-1.07 5.59,-1.083 5.491,-1.083 5.394,-1.083 c -3.583,-0.001 -7.165,-0.001 -10.748,0 -0.272,10e-4 -0.537,-0.029 -0.698,-0.277 -0.076,-0.117 -0.133,-0.266 -0.139,-0.403 -0.017,-0.439 -0.007,-0.88 -0.007,-1.32 0,-2.384 0.001,-4.769 -0.002,-7.152 0,-0.223 0.017,-0.44 0.205,-0.581 0.117,-0.088 0.261,-0.146 0.401,-0.194 0.083,-0.028 0.181,-0.012 0.273,-0.012 2.513,0 5.026,-10e-4 7.538,10e-4 0.222,0 0.426,-0.029 0.569,-0.228 0.127,-0.176 0.146,-0.36 0.056,-0.553 -0.09,-0.191 -0.242,-0.302 -0.461,-0.307 -0.104,-0.003 -0.208,-0.003 -0.312,-0.003 -2.488,0 -4.976,0.003 -7.465,-10e-4 -0.611,-0.001 -1.122,0.202 -1.511,0.682 -0.27,0.333 -0.384,0.722 -0.385,1.141 -0.003,2.825 -0.006,5.649 10e-4,8.474 0.002,1.058 0.777,1.813 1.844,1.815 C -3.632,0.002 -1.816,0 0,0"/>
      </g>
    </g>
  </g>
</svg>