<?xml version="1.0" encoding="utf-8"?>
<svg viewBox="394.2 450 171 126" width="165.9px" height="122.1px" xmlns="http://www.w3.org/2000/svg">
  <defs>
    <clipPath id="clipPath642" clipPathUnits="userSpaceOnUse">
      <path id="path640" d="M 0,1463.693 H 480 V 0 H 0 Z"/>
    </clipPath>
  </defs>
  <g id="g636" transform="matrix(4.457774, 0, 0, -4.457774, -1189.740601, 4327.598633)" style="">
    <g clip-path="url(#clipPath642)" id="g638">
      <g transform="translate(381.2563,855.9305)" id="g644">
        <path id="path646" style="fill:#0b486d;fill-opacity:1;fill-rule:nonzero;stroke:none" d="m 0,0 c -0.153,4.072 -3.611,7.022 -7.433,6.733 -3.861,-0.293 -6.759,-3.647 -6.453,-7.406 0.315,-3.87 3.624,-6.772 7.389,-6.48 C -2.556,-6.848 0.138,-3.52 0,0 m -6.921,8.075 c 4.567,-0.011 8.27,-3.751 8.254,-8.336 -0.017,-4.527 -3.776,-8.247 -8.311,-8.223 -4.596,0.025 -8.239,3.713 -8.238,8.341 0,4.536 3.729,8.229 8.295,8.218"/>
      </g>
      <g transform="translate(368.3223,866.9989)" id="g648">
        <path id="path650" style="fill:#0b486d;fill-opacity:1;fill-rule:nonzero;stroke:none" d="M 0,0 C 0.085,-0.065 0.309,-0.165 0.421,-0.338 0.765,-0.868 1.077,-1.42 1.379,-1.975 1.578,-2.34 1.549,-2.697 1.159,-2.919 0.77,-3.14 0.453,-2.991 0.237,-2.628 -0.077,-2.102 -0.396,-1.577 -0.68,-1.034 -0.954,-0.509 -0.668,0.008 0,0"/>
      </g>
      <g transform="translate(363.0337,861.7596)" id="g652">
        <path id="path654" style="fill:#0b486d;fill-opacity:1;fill-rule:nonzero;stroke:none" d="M 0,0 C 0.021,0.616 0.484,0.907 0.959,0.669 1.559,0.369 2.138,0.024 2.706,-0.332 3.017,-0.527 3.171,-0.884 2.92,-1.167 2.748,-1.361 2.317,-1.542 2.117,-1.457 1.469,-1.181 0.863,-0.795 0.265,-0.415 0.113,-0.318 0.05,-0.083 0,0"/>
      </g>
      <g transform="translate(382.5894,861.0355)" id="g656">
        <path id="path658" style="fill:#0b486d;fill-opacity:1;fill-rule:nonzero;stroke:none" d="M 0,0 C 0.064,0.082 0.167,0.302 0.34,0.414 0.872,0.755 1.425,1.065 1.981,1.366 2.352,1.567 2.708,1.517 2.921,1.128 3.119,0.769 2.996,0.448 2.654,0.241 2.097,-0.097 1.54,-0.44 0.958,-0.731 0.469,-0.977 -0.021,-0.652 0,0"/>
      </g>
      <g transform="translate(368.2734,844.4457)" id="g660">
        <path id="path662" style="fill:#0b486d;fill-opacity:1;fill-rule:nonzero;stroke:none" d="m 0,0 c -0.583,0.003 -0.907,0.479 -0.678,0.937 0.307,0.616 0.643,1.227 1.05,1.779 0.13,0.177 0.549,0.266 0.789,0.207 C 1.522,2.833 1.651,2.452 1.487,2.126 1.161,1.477 0.783,0.853 0.394,0.239 0.307,0.101 0.085,0.049 0,0"/>
      </g>
      <g transform="translate(381.2461,845.1083)" id="g664">
        <path id="path666" style="fill:#0b486d;fill-opacity:1;fill-rule:nonzero;stroke:none" d="m 0,0 c -0.238,-0.26 -0.378,-0.542 -0.581,-0.598 -0.208,-0.058 -0.59,0.029 -0.701,0.187 -0.414,0.597 -0.781,1.233 -1.092,1.89 -0.082,0.174 0.03,0.562 0.186,0.693 0.156,0.132 0.626,0.174 0.706,0.068 C -0.963,1.542 -0.513,0.793 0,0"/>
      </g>
      <g transform="translate(381.1626,866.41)" id="g668">
        <path id="path670" style="fill:#0b486d;fill-opacity:1;fill-rule:nonzero;stroke:none" d="m 0,0 c -0.096,-0.236 -0.139,-0.384 -0.213,-0.515 -0.292,-0.518 -0.586,-1.036 -0.896,-1.544 -0.222,-0.362 -0.546,-0.495 -0.929,-0.258 -0.347,0.214 -0.421,0.541 -0.222,0.898 0.318,0.57 0.614,1.159 1.002,1.679 0.14,0.187 0.531,0.295 0.781,0.258 C -0.291,0.491 -0.148,0.173 0,0"/>
      </g>
      <g transform="translate(383.1787,851.2792)" id="g672">
        <path id="path674" style="fill:#0b486d;fill-opacity:1;fill-rule:nonzero;stroke:none" d="m 0,0 c 0.266,-0.113 0.448,-0.172 0.611,-0.264 0.484,-0.27 0.968,-0.543 1.438,-0.835 0.357,-0.222 0.488,-0.553 0.265,-0.933 -0.21,-0.359 -0.56,-0.398 -0.9,-0.216 -0.573,0.307 -1.155,0.61 -1.673,0.997 -0.189,0.14 -0.302,0.528 -0.266,0.776 C -0.499,-0.291 -0.176,-0.148 0,0"/>
      </g>
      <g transform="translate(363.7085,848.7811)" id="g676">
        <path id="path678" style="fill:#0b486d;fill-opacity:1;fill-rule:nonzero;stroke:none" d="M 0,0 C -0.273,0.239 -0.551,0.367 -0.599,0.553 -0.655,0.771 -0.595,1.162 -0.44,1.268 0.173,1.69 0.829,2.064 1.504,2.379 1.671,2.457 2.031,2.306 2.192,2.148 2.31,2.033 2.344,1.606 2.252,1.537 1.54,1.005 0.788,0.527 0,0"/>
      </g>
      <g transform="translate(385.5781,855.0736)" id="g680">
        <path id="path682" style="fill:#0b486d;fill-opacity:1;fill-rule:nonzero;stroke:none" d="m 0,0 c -0.326,0 -0.652,-0.014 -0.977,0.003 -0.41,0.021 -0.643,0.26 -0.634,0.665 0.007,0.376 0.235,0.615 0.615,0.626 0.67,0.02 1.342,0.023 2.012,10e-4 C 1.417,1.283 1.658,1.05 1.645,0.63 1.631,0.212 1.383,0.01 0.978,-0.001 0.652,-0.009 0.326,-0.002 0,-0.002 Z"/>
      </g>
      <g transform="translate(373.6675,867.0223)" id="g684">
        <path id="path686" style="fill:#0b486d;fill-opacity:1;fill-rule:nonzero;stroke:none" d="M 0,0 C 0,0.326 -0.009,0.652 0.002,0.977 0.015,1.36 0.22,1.591 0.605,1.611 1.018,1.632 1.275,1.404 1.291,1.002 1.318,0.314 1.32,-0.377 1.287,-1.065 1.269,-1.436 1.018,-1.655 0.63,-1.646 0.245,-1.636 0.028,-1.413 0.006,-1.035 -0.014,-0.691 0.002,-0.345 0.002,0 Z"/>
      </g>
      <g transform="translate(373.667,844.4891)" id="g688">
        <path id="path690" style="fill:#0b486d;fill-opacity:1;fill-rule:nonzero;stroke:none" d="M 0,0 C 0,0.307 -0.007,0.614 0.002,0.92 0.013,1.332 0.237,1.569 0.643,1.581 1.028,1.593 1.271,1.361 1.288,0.989 1.317,0.301 1.318,-0.391 1.29,-1.08 1.273,-1.486 1.001,-1.704 0.595,-1.68 0.211,-1.658 0.012,-1.417 0.002,-1.036 -0.007,-0.691 0,-0.345 0,0"/>
      </g>
      <g transform="translate(363.021,856.3719)" id="g692">
        <path id="path694" style="fill:#0b486d;fill-opacity:1;fill-rule:nonzero;stroke:none" d="M 0,0 C 0.327,0 0.654,0.012 0.98,-0.002 1.389,-0.021 1.643,-0.254 1.639,-0.655 1.636,-1.058 1.375,-1.288 0.968,-1.295 0.314,-1.307 -0.34,-1.307 -0.994,-1.293 c -0.388,0.008 -0.612,0.249 -0.624,0.621 -0.014,0.407 0.23,0.643 0.637,0.668 C -0.655,0.015 -0.327,0 0,0"/>
      </g>
      <g transform="translate(373.6665,859.9969)" id="g696">
        <path id="path698" style="fill:#0b486d;fill-opacity:1;fill-rule:nonzero;stroke:none" d="M 0,0 C 0,0.461 0.001,0.882 0,1.303 -0.001,1.725 0.237,1.973 0.627,1.984 1.018,1.995 1.278,1.75 1.297,1.339 1.316,0.917 1.301,0.495 1.301,-0.034 c 0.508,0 0.979,-0.009 1.449,0.003 0.458,0.011 0.814,-0.108 0.853,-0.633 0.03,-0.429 -0.291,-0.676 -0.871,-0.681 -0.808,-0.006 -1.616,0.003 -2.425,-0.003 -0.794,-0.006 -1.318,-0.47 -1.306,-1.146 0.013,-0.659 0.517,-1.102 1.281,-1.121 0.288,-0.007 0.577,0.005 0.866,-0.003 1.27,-0.03 2.292,-0.908 2.447,-2.099 0.166,-1.269 -0.597,-2.392 -1.866,-2.741 -0.11,-0.03 -0.224,-0.048 -0.42,-0.089 0,-0.405 0.003,-0.821 -10e-4,-1.237 -0.004,-0.454 -0.225,-0.765 -0.688,-0.747 -0.423,0.017 -0.634,0.307 -0.623,0.747 0.01,0.399 0.002,0.799 0.002,1.274 -0.551,0 -1.045,0.005 -1.54,-0.002 -0.452,-0.006 -0.764,0.166 -0.763,0.654 10e-4,0.49 0.33,0.655 0.771,0.657 0.846,0.003 1.693,-0.002 2.54,0.004 0.751,0.006 1.279,0.465 1.29,1.111 0.012,0.646 -0.509,1.13 -1.255,1.155 -0.289,0.011 -0.578,-0.001 -0.866,0.003 -1.283,0.019 -2.317,0.886 -2.47,2.066 -0.173,1.324 0.574,2.427 1.883,2.778 C -0.301,-0.055 -0.187,-0.038 0,0"/>
      </g>
    </g>
  </g>
</svg>