<?xml version="1.0" encoding="utf-8"?>
<svg viewBox="394.232 590.318 165.924 122.144" width="165.924px" height="122.144px" xmlns="http://www.w3.org/2000/svg">
  <defs>
    <clipPath id="clipPath294" clipPathUnits="userSpaceOnUse">
      <path id="path292" d="M 0,1463.693 H 480 V 0 H 0 Z"/>
    </clipPath>
    <clipPath id="clipPath314" clipPathUnits="userSpaceOnUse">
      <path id="path312" d="m 342.644,1007.52 h 63.337 v -72.426 h -63.337 z"/>
    </clipPath>
    <clipPath id="clipPath336" clipPathUnits="userSpaceOnUse">
      <path id="path334" d="M 0,1463.693 H 480 V 0 H 0 Z"/>
    </clipPath>
  </defs>
  <g clip-path="url(#clipPath294)" id="g290" transform="matrix(1.333333, 0, 0, -1.333333, 0, 1951.58667)">
    <g transform="translate(313.291,970.8353)" id="g296">
      <path id="path298" style="fill:#0b486d;fill-opacity:1;fill-rule:nonzero;stroke:none" d="m 0,0 -0.122,-1.587 -0.082,-0.529 -0.284,-0.325 -0.57,-0.082 -0.976,-0.081 -0.651,0.041 -0.977,0.04 -0.651,0.041 -0.936,-0.041 h -5.492 l -0.977,-0.04 h -1.627 l -0.651,-0.041 -0.977,-0.041 -0.651,-0.041 -0.935,0.082 -0.529,0.122 -0.326,0.325 -0.122,0.57 L -17.617,0 v 0.65 l 0.162,1.587 0.123,0.57 0.244,0.325 0.529,0.082 0.976,0.041 h 3.865 l 4.191,-0.123 h 0.651 l 0.977,0.041 h 2.237 l 0.977,0.082 h 0.651 L -1.099,3.173 -0.529,3.092 -0.244,2.807 -0.163,2.237 0,0.65 Z M 0,8.096 -0.122,6.55 -0.204,6.021 -0.488,5.695 -1.058,5.574 -2.034,5.533 h -0.651 l -0.977,0.081 h -7.079 l -0.977,-0.04 h -1.627 l -0.651,-0.041 -0.977,-0.041 -0.651,-0.04 -0.935,0.04 -0.529,0.122 -0.326,0.366 -0.122,0.57 -0.081,1.546 v 0.651 l 0.162,1.546 0.123,0.57 0.244,0.325 0.529,0.082 0.976,0.041 h 2.238 l 0.976,-0.041 h 2.279 l 2.563,-0.082 h 2.278 l 0.936,0.041 h 0.651 l 0.977,0.082 0.651,-0.041 0.935,-0.041 0.57,-0.082 0.285,-0.284 0.081,-0.57 L 0,8.747 Z"/>
    </g>
    <g transform="translate(420.1172,975.1478)" id="g300">
      <path id="path302" style="fill:#0b486d;fill-opacity:1;fill-rule:nonzero;stroke:none" d="m 0,0 c 0,-25.297 -20.507,-45.804 -45.805,-45.804 -25.297,0 -45.804,20.507 -45.804,45.804 0,25.297 20.507,45.804 45.804,45.804 C -20.507,45.804 0,25.297 0,0"/>
    </g>
    <g transform="translate(420.1172,975.1478)" id="g304">
      <path id="path306" style="fill:none;stroke:#ffffff;stroke-width:0.78299999;stroke-linecap:butt;stroke-linejoin:miter;stroke-miterlimit:2;stroke-dasharray:none;stroke-opacity:1" d="m 0,0 c 0,-25.297 -20.507,-45.804 -45.805,-45.804 -25.297,0 -45.804,20.507 -45.804,45.804 0,25.297 20.507,45.804 45.804,45.804 C -20.507,45.804 0,25.297 0,0 Z"/>
    </g>
    <g id="g308">
      <g id="g310"/>
      <g id="g322">
        <g style="opacity:0.14999402" id="g320" clip-path="url(#clipPath314)">
          <g id="g318" transform="translate(374.313,1007.5199)">
            <path id="path316" style="fill:#ffffff;fill-opacity:1;fill-rule:nonzero;stroke:none" d="m 0,0 c 0,0 -8.041,-5.384 -31.669,-7.208 v -40.207 c 0,0 0.731,-10.682 15.834,-16.761 0,0 7.488,-3.445 15.835,-8.25 8.346,4.805 15.833,8.25 15.833,8.25 15.104,6.079 15.835,16.761 15.835,16.761 V -7.208 C 8.04,-5.384 0,0 0,0"/>
          </g>
        </g>
      </g>
    </g>
  </g>
  <text id="text328" style="font-variant: normal; font-weight: normal; font-stretch: normal; font-size: 12.5px; font-family: Avenir; writing-mode: lr-tb; fill: rgb(255, 255, 255); fill-opacity: 1; fill-rule: nonzero; stroke: none; white-space: pre;" transform="matrix(1.333333, 0, 0, 1.333333, 461.873711, 636.161048)"><tspan id="tspan324" y="0" x="0 3.25 10.2 14.6 21.549999 25.950001 32.900002 38.224998 45.174999 48.174999">Internship</tspan><tspan id="tspan326" y="12.9125" x="-11.35 -0.92500001 6.7125001 14.35 21.775 26.174999 30.575001 37.525002 44.474998 47.474998 51.887501 54.887501 61.837502">Opportunities</tspan></text>
  <g clip-path="url(#clipPath336)" id="g332" transform="matrix(1.333333, 0, 0, -1.333333, 0, 1951.58667)">
    <g transform="translate(372.8101,963.3187)" id="g338">
      <path id="path340" style="fill:#ffffff;fill-opacity:1;fill-rule:nonzero;stroke:none" d="m 0,0 c -0.125,0.006 -0.214,0.013 -0.302,0.013 -2.984,0.001 -5.969,0.002 -8.952,0 -0.822,0 -1.234,-0.419 -1.234,-1.25 -0.001,-4.258 -0.001,-8.516 0,-12.775 0,-0.847 0.41,-1.259 1.255,-1.259 7.154,0 14.308,0 21.462,0 0.852,0 1.265,0.409 1.265,1.252 0.002,4.259 10e-4,8.518 10e-4,12.776 -10e-4,0.847 -0.412,1.256 -1.262,1.257 -2.964,10e-4 -5.928,0 -8.892,0 H 3.006 c 0,-0.346 0.002,-0.646 -10e-4,-0.947 C 3,-1.397 2.804,-1.6 2.349,-1.602 1.786,-1.605 1.224,-1.605 0.661,-1.602 0.197,-1.6 0.007,-1.408 0.001,-0.939 -0.003,-0.638 0,-0.337 0,0 m 0,0.738 c 0,0.368 -0.002,0.698 0,1.027 0.005,0.5 0.177,0.677 0.667,0.68 0.562,0.003 1.125,0.004 1.687,0 C 2.825,2.442 3.001,2.261 3.005,1.78 3.008,1.449 3.006,1.119 3.006,0.738 h 0.359 c 2.924,0 5.847,0.001 8.771,0 1.371,0 2.083,-0.711 2.083,-2.078 0.001,-4.228 0.001,-8.456 0,-12.685 0,-0.957 -0.496,-1.674 -1.323,-1.893 -0.211,-0.056 -0.437,-0.075 -0.656,-0.075 -7.164,-0.004 -14.328,-0.004 -21.492,-0.002 -1.205,0 -1.96,0.754 -1.96,1.955 -0.003,4.279 -0.003,8.558 0,12.836 10e-4,1.183 0.758,1.94 1.943,1.941 2.955,0.004 5.909,0.001 8.863,0.001 z"/>
    </g>
    <g transform="translate(379.7983,949.8407)" id="g342">
      <path id="path344" style="fill:#ffffff;fill-opacity:1;fill-rule:nonzero;stroke:none" d="m 0,0 c -1.265,0 -2.531,0 -3.796,0 -0.416,0 -0.522,0.101 -0.527,0.508 -0.005,0.402 -0.007,0.804 0.001,1.205 0.008,0.353 0.125,0.463 0.481,0.463 2.561,10e-4 5.122,10e-4 7.682,0 0.354,0 0.475,-0.114 0.481,-0.464 C 4.33,1.291 4.331,0.869 4.322,0.447 4.314,0.115 4.191,0.001 3.856,0 2.571,-0.001 1.286,0 0,0"/>
    </g>
    <g transform="translate(379.793,959.3148)" id="g346">
      <path id="path348" style="fill:#ffffff;fill-opacity:1;fill-rule:nonzero;stroke:none" d="m 0,0 c 1.275,0 2.551,0.001 3.826,0 0.389,-0.001 0.495,-0.109 0.504,-0.501 0.021,-0.933 0.013,-0.94 -0.915,-0.94 h -7.17 c -0.462,0 -0.56,0.099 -0.564,0.568 C -4.326,0 -4.326,0 -3.464,0 Z"/>
    </g>
    <g transform="translate(379.7896,953.2098)" id="g350">
      <path id="path352" style="fill:#ffffff;fill-opacity:1;fill-rule:nonzero;stroke:none" d="m 0,0 c -1.265,0 -2.53,-0.001 -3.795,0 -0.41,0 -0.512,0.103 -0.52,0.514 -0.019,0.919 -0.011,0.926 0.898,0.926 h 7.2 C 4.224,1.44 4.329,1.335 4.333,0.889 4.342,0 4.342,0 3.464,0 Z"/>
    </g>
    <g transform="translate(379.7969,955.5443)" id="g354">
      <path id="path356" style="fill:#ffffff;fill-opacity:1;fill-rule:nonzero;stroke:none" d="m 0,0 c -1.255,0 -2.51,0 -3.764,0 -0.467,0.001 -0.555,0.093 -0.559,0.569 -0.006,0.866 -0.006,0.866 0.863,0.866 2.399,0 4.798,0 7.197,-0.001 0.505,0 0.588,-0.085 0.589,-0.598 C 4.328,0.001 4.328,0 3.493,0 Z"/>
    </g>
    <g transform="translate(376.2993,962.4784)" id="g358">
      <path id="path360" style="fill:#ffffff;fill-opacity:1;fill-rule:nonzero;stroke:none" d="m 0,0 c 0.609,0 1.182,0.027 1.75,-0.009 0.46,-0.03 0.597,-0.227 0.598,-0.695 0,-0.231 0.004,-0.463 -10e-4,-0.693 C 2.34,-1.717 2.157,-1.923 1.84,-1.963 1.721,-1.978 1.6,-1.978 1.479,-1.978 c -2.311,-0.001 -4.622,-0.001 -6.933,0 -0.12,0 -0.242,0 -0.361,0.015 -0.32,0.04 -0.501,0.24 -0.509,0.564 -0.006,0.24 -0.002,0.482 -0.001,0.723 0.001,0.442 0.14,0.636 0.595,0.666 0.568,0.037 1.14,0.009 1.752,0.009 0,-0.228 -0.003,-0.445 0,-0.662 0.007,-0.377 0.204,-0.638 0.572,-0.646 0.943,-0.022 1.887,-0.022 2.831,0 0.37,0.008 0.568,0.268 0.574,0.642 C 0.002,-0.457 0,-0.246 0,0"/>
    </g>
    <g transform="translate(365.8701,951.4559)" id="g362">
      <path id="path364" style="fill:#ffffff;fill-opacity:1;fill-rule:nonzero;stroke:none" d="M 0,0 C 0.038,1.379 0.58,2.457 1.721,3.209 0.946,4.444 1.006,5.438 1.888,6.172 2.62,6.781 3.759,6.751 4.458,6.105 5.282,5.344 5.31,4.293 4.511,3.185 5.646,2.424 6.146,1.344 6.204,0 Z M 7.625,7.541 C 7.624,8.269 7.297,8.58 6.567,8.581 4.296,8.582 2.025,8.563 -0.245,8.591 -1.008,8.601 -1.383,8.179 -1.37,7.45 c 0.027,-1.395 0.008,-2.792 0.009,-4.187 0,-1.456 -0.005,-2.912 0.002,-4.368 0.003,-0.642 0.359,-0.983 0.996,-0.983 2.321,-10e-4 4.641,0 6.962,0 0.677,0 1.026,0.333 1.026,1.013 0.005,2.872 0.005,5.744 0,8.616"/>
    </g>
  </g>
</svg>