<?xml version="1.0" encoding="utf-8"?>
<svg viewBox="394.2 450 171 126" width="165.9px" height="122.1px" xmlns="http://www.w3.org/2000/svg">
  <defs>
    <clipPath id="clipPath426" clipPathUnits="userSpaceOnUse">
      <path id="path424" d="M 0,1463.693 H 480 V 0 H 0 Z"/>
    </clipPath>
  </defs>
  <g id="g420" transform="matrix(5.983041, 0, 0, -5.983041, -1759.417236, 3723.695557)" style="">
    <g clip-path="url(#clipPath426)" id="g422">
      <g transform="translate(367.3501,529.3514)" id="g428">
        <path id="path430" style="fill:#0b486d;fill-opacity:1;fill-rule:nonzero;stroke:none" d="m 0,0 c 0.005,0.102 0.01,0.155 0.01,0.208 10e-4,4.35 -0.001,8.698 0.005,13.047 0,0.176 -0.07,0.242 -0.22,0.297 -1.094,0.404 -2.186,0.816 -3.278,1.224 -0.07,0.027 -0.142,0.048 -0.231,0.078 -0.007,-0.088 -0.015,-0.149 -0.015,-0.209 0,-4.35 0,-8.699 -0.005,-13.047 0,-0.168 0.069,-0.23 0.208,-0.282 0.818,-0.3 1.632,-0.607 2.448,-0.912 C -0.729,0.273 -0.38,0.143 0,0 M 1.307,0 C 1.422,0.041 1.517,0.073 1.61,0.108 2.673,0.508 3.734,0.913 4.801,1.303 4.983,1.37 5.045,1.451 5.045,1.648 5.039,5.967 5.04,10.286 5.04,14.605 V 14.86 C 4.946,14.828 4.874,14.806 4.802,14.779 3.717,14.372 2.633,13.96 1.544,13.562 1.361,13.494 1.301,13.409 1.302,13.213 1.308,8.894 1.307,4.574 1.307,0.256 Z M 6.351,14.849 V 14.598 C 6.351,10.278 6.352,5.959 6.346,1.64 6.346,1.451 6.402,1.371 6.576,1.307 8,0.781 9.419,0.245 10.84,-0.288 11.217,-0.43 11.407,-0.662 11.391,-0.955 11.366,-1.427 10.954,-1.708 10.498,-1.544 9.771,-1.283 9.052,-1.006 8.33,-0.735 7.521,-0.433 6.714,-0.123 5.9,0.168 5.776,0.213 5.606,0.211 5.481,0.165 4.014,-0.374 2.548,-0.923 1.087,-1.479 c -0.294,-0.112 -0.56,-0.112 -0.855,0 -1.555,0.594 -3.116,1.175 -4.675,1.76 -0.47,0.176 -0.582,0.334 -0.582,0.831 -10e-4,2.76 -10e-4,5.52 -10e-4,8.281 0,2.112 0,4.225 10e-4,6.337 0,0.407 0.2,0.679 0.558,0.712 0.154,0.015 0.324,-0.034 0.473,-0.089 1.468,-0.544 2.934,-1.093 4.397,-1.649 0.18,-0.068 0.331,-0.065 0.512,0.003 1.462,0.557 2.93,1.101 4.394,1.654 0.262,0.1 0.504,0.104 0.769,0.003 1.565,-0.597 3.133,-1.185 4.701,-1.776 0.502,-0.19 0.601,-0.331 0.6,-0.868 0,-0.67 0.002,-1.341 -0.007,-2.012 -0.003,-0.273 -0.141,-0.476 -0.398,-0.578 -0.256,-0.102 -0.512,-0.068 -0.686,0.14 -0.11,0.131 -0.186,0.329 -0.194,0.501 -0.026,0.504 -0.004,1.012 -0.016,1.519 -0.002,0.076 -0.069,0.194 -0.135,0.22 -1.162,0.446 -2.328,0.883 -3.493,1.32 -0.021,0.008 -0.045,0.009 -0.099,0.019"/>
      </g>
      <g transform="translate(383.123,534.6737)" id="g432">
        <path id="path434" style="fill:#0b486d;fill-opacity:1;fill-rule:nonzero;stroke:none" d="m 0,0 c -0.006,1.943 -1.594,3.525 -3.535,3.519 -1.944,-0.006 -3.53,-1.6 -3.521,-3.535 0.011,-1.953 1.593,-3.518 3.562,-3.524 C -1.59,-3.546 0.006,-1.929 0,0 m 0.325,-2.939 c 0.766,-0.765 1.521,-1.519 2.277,-2.273 0.11,-0.11 0.222,-0.22 0.33,-0.332 C 3.24,-5.86 3.26,-6.236 2.986,-6.518 2.714,-6.797 2.327,-6.783 2.014,-6.473 c -0.676,0.67 -1.348,1.344 -2.019,2.017 -0.198,0.198 -0.389,0.403 -0.579,0.602 -2.337,-1.7 -5.271,-1.064 -6.785,0.887 -1.494,1.925 -1.357,4.642 0.375,6.386 1.809,1.822 4.594,1.94 6.579,0.286 1.844,-1.537 2.383,-4.357 0.74,-6.644"/>
      </g>
    </g>
  </g>
</svg>