<?xml version="1.0" encoding="UTF-8" standalone="no"?>
<svg
   xmlns:dc="http://purl.org/dc/elements/1.1/"
   xmlns:cc="http://creativecommons.org/ns#"
   xmlns:rdf="http://www.w3.org/1999/02/22-rdf-syntax-ns#"
   xmlns:svg="http://www.w3.org/2000/svg"
   xmlns="http://www.w3.org/2000/svg"
   viewBox="0 0 975.85333 290.64001"
   height="290.64001"
   width="975.85333"
   xml:space="preserve"
   id="svg2"
   version="1.1"><metadata
     id="metadata8"><rdf:RDF><cc:Work
         rdf:about=""><dc:format>image/svg+xml</dc:format><dc:type
           rdf:resource="http://purl.org/dc/dcmitype/StillImage" /></cc:Work></rdf:RDF></metadata><defs
     id="defs6" /><g
     transform="matrix(1.3333333,0,0,-1.3333333,0,290.64)"
     id="g10"><g
       transform="scale(0.1)"
       id="g12"><path
         id="path14"
         style="fill:#971a1f;fill-opacity:1;fill-rule:nonzero;stroke:none"
         d="m 2217.76,1381.87 c 0,-130.88 0,-178.96 8.02,-207.46 7.13,-25.82 25.82,-26.7 67.67,-27.59 7.12,0 8.01,-7.13 8.01,-16.92 0,-9.79 0,-18.7 -8.91,-18.7 -11.57,0 -43.62,0.89 -75.67,1.78 -31.17,0 -63.22,0.89 -73.91,0.89 -29.38,0 -57.86,-0.89 -80.12,-0.89 -21.38,-0.89 -37.4,-1.78 -43.64,-1.78 -7.12,0 -8.89,8.91 -8.89,18.7 0,16.02 10.68,17.81 23.14,18.69 54.31,4.46 55.21,42.74 56.98,103.29 2.68,24.93 2.68,175.4 2.68,242.17 0,66.78 -0.89,102.4 -7.12,121.99 -7.13,22.25 -24.04,25.82 -48.08,26.7 -17.81,0 -23.15,1.79 -23.15,10.69 0,18.7 0.88,26.71 10.68,26.71 11.58,0 84.58,-1.78 135.34,-1.78 32.94,0 89.02,1.78 122.87,1.78 9.79,0 10.68,-4.45 10.68,-13.36 0,-22.25 -3.56,-24.04 -17.82,-24.04 -50.74,0 -56.97,-41.84 -57.86,-83.69 -0.9,-55.2 -0.9,-88.14 -0.9,-127.32 h 271.57 c 0,39.18 0,72.12 -0.89,127.32 -0.9,71.23 -3.56,83.69 -65.9,83.69 -8,0 -10.67,3.56 -10.67,10.69 0,22.26 1.78,26.71 11.57,26.71 33.84,0 89.92,-1.78 122.86,-1.78 50.76,0 123.77,1.78 142.46,1.78 5.35,0 6.24,-7.12 6.24,-16.03 0,-17.81 -1.78,-21.37 -18.7,-21.37 -49.86,0 -62.33,-29.38 -62.33,-81.02 v -309.84 c 0,-58.76 1.79,-97.94 32.06,-100.62 43.63,-4.44 52.52,-4.44 52.52,-10.67 0,-21.38 0.89,-29.39 -10.67,-29.39 -5.35,0 -21.38,0.89 -43.63,1.78 -22.26,0 -49.87,0.89 -80.13,0.89 -10.69,0 -41.85,-0.89 -73.91,-0.89 -32.05,-0.89 -64.11,-1.78 -75.67,-1.78 -9.79,0 -12.47,6.23 -12.47,21.37 0,9.79 4.44,14.25 17.81,14.25 11.58,0 55.2,4.44 63.22,49.85 6.23,34.73 6.23,124.66 6.23,185.2 h -271.57" /><path
         id="path16"
         style="fill:#971a1f;fill-opacity:1;fill-rule:nonzero;stroke:none"
         d="m 2985.04,1346.25 c 57.87,-1.78 115.75,-1.78 173.62,0 -33.84,86.37 -73.02,186.09 -83.69,217.26 -26.72,-59.67 -65,-157.61 -89.93,-217.26 m 163.82,337.46 c 7.13,0 9.8,-7.14 12.47,-17.82 18.7,-61.44 56.98,-154.03 88.14,-229.71 46.3,-114.86 62.33,-151.37 97.05,-232.39 16.03,-38.28 30.28,-48.97 61.44,-55.2 8.9,-0.88 8.9,-8 8.9,-18.69 0,-13.36 0,-18.69 -8.9,-18.69 -41.85,0 -80.14,1.76 -121.09,1.76 -32.94,0 -73.01,-1.76 -115.75,-1.76 -14.24,0 -15.13,5.33 -15.13,14.23 0,15.15 0,21.38 11.57,22.27 26.71,2.67 49.86,7.11 49.86,30.26 0,15.14 -33.85,104.17 -43.63,129.12 -48.08,0.88 -166.5,0.88 -204.78,0 -14.24,-40.08 -41.85,-107.74 -41.85,-128.23 0,-24.91 28.49,-30.27 54.31,-31.15 19.59,-0.89 19.59,-0.89 19.59,-19.59 0,-8.91 0,-16.91 -9.8,-16.91 -37.38,0.88 -73.89,1.76 -111.28,1.76 -24.94,-0.88 -61.44,-1.76 -75.68,-1.76 -9.8,0 -13.36,1.76 -13.36,14.23 0,11.58 0,20.48 9.79,22.27 34.73,8.01 48.08,36.49 113.97,171.84 28.49,60.53 105.94,220.8 134.44,296.49 18.7,48.08 18.7,56.09 27.6,57.87 49.86,8.9 62.33,9.8 72.12,9.8" /><path
         id="path18"
         style="fill:#971a1f;fill-opacity:1;fill-rule:nonzero;stroke:none"
         d="m 4048.99,1483.37 c -0.88,34.73 -0.88,110.41 -10.67,134.44 -7.13,19.59 -22.28,25.82 -72.12,27.61 -11.58,0.88 -11.58,1.78 -11.58,19.59 0,8.9 2.67,15.13 14.24,15.13 17.82,0 98.84,-1.78 114.87,-1.78 17.79,0 97.03,1.78 112.17,1.78 9.79,0 9.79,-2.68 9.79,-18.7 0,-14.24 0,-16.02 -8,-16.91 -55.2,-7.13 -77.47,-9.8 -82.81,-90.82 -1.78,-40.96 -8.01,-226.15 -8.01,-331.21 0,-20.48 0.88,-71.23 1.77,-93.49 v -5.34 c 0,-6.24 -9.78,-8.91 -41.84,-23.15 -5.34,-2.67 -8.01,0.89 -12.46,6.23 -51.64,65 -79.24,91.71 -174.52,191.42 -17.79,18.71 -134.43,145.13 -176.28,190.54 -6.24,6.24 -22.25,22.26 -39.17,41.85 -1.79,-37.4 -1.79,-105.06 -1.79,-130.88 0,-224.37 0,-241.29 36.5,-249.3 8.91,-1.79 49.87,-1.79 57.88,-5.34 3.56,-1.79 3.56,-10.69 3.56,-16.92 0,-10.69 -0.89,-16.03 -10.69,-16.03 -19.59,0 -74.79,1.78 -122.86,1.78 -16.03,0 -95.26,-1.78 -108.63,-1.78 -6.22,0 -10.67,1.78 -10.67,13.36 0,14.24 0,21.37 8.9,22.26 54.31,5.34 69.45,9.79 76.56,92.59 4.46,45.41 10.69,300.95 10.69,313.41 0,67.67 -21.36,82.8 -77.46,88.15 -7.12,0.89 -12.46,2.67 -12.46,17.8 0,16.03 5.34,20.48 14.23,20.48 15.15,0 53.43,-3.56 80.14,-3.56 29.38,0 57.87,3.56 77.46,3.56 9.79,0 18.69,0 23.15,-8.9 16.92,-31.17 59.65,-77.46 118.41,-139.79 34.74,-37.4 189.65,-197.66 221.7,-230.6 v 182.52" /><path
         id="path20"
         style="fill:#971a1f;fill-opacity:1;fill-rule:nonzero;stroke:none"
         d="m 4626.31,1151.26 c 93.5,0 177.19,66.78 177.19,220.81 0,156.7 -85.48,268 -201.22,268 -43.64,0 -85.48,-15.14 -113.98,-40.96 -57.87,-52.53 -63.21,-148.68 -63.21,-179.85 0,-175.4 95.27,-268 201.22,-268 m 0.9,538.67 c 197.65,0 311.62,-127.32 311.62,-285.8 0,-109.52 -68.56,-301.83 -334.78,-301.83 -222.58,0 -314.28,138 -314.28,294.7 0,219.04 202.11,292.93 337.44,292.93" /><path
         id="path22"
         style="fill:#971a1f;fill-opacity:1;fill-rule:nonzero;stroke:none"
         d="m 5452.75,1524.32 c 8.92,23.16 28.51,71.24 28.51,91.72 0,19.57 -15.15,26.71 -63.23,26.71 -11.57,0 -13.35,0.88 -13.35,15.13 0,18.7 0.89,21.36 9.79,21.36 12.46,0 55.21,-1.78 103.28,-1.78 60.55,0 78.35,1.78 93.5,1.78 6.23,0 6.23,-3.56 6.23,-13.35 0,-16.03 0,-18.69 -8.92,-21.36 -37.38,-12.48 -37.38,-12.48 -106.83,-154.92 -16.03,-32.07 -118.41,-243.97 -154.92,-327.66 -16.03,-37.39 -16.03,-46.31 -21.36,-47.19 -19.59,-2.68 -57.88,-9.79 -65,-9.79 -5.35,0 -6.23,1.77 -10.69,16.03 -8.02,26.71 -45.41,126.43 -81.92,219.02 -77.45,195.88 -81.01,205.67 -96.15,239.52 -24.93,56.98 -41.86,62.32 -64.99,64.09 -8.03,0.9 -8.03,5.35 -8.03,17.81 0,13.36 0.9,17.8 10.7,17.8 18.69,0 81.02,-1.78 129.1,-1.78 48.07,0 106.83,1.78 115.75,1.78 6.23,0 8.9,-2.66 8.9,-16.9 0,-16.93 -1.79,-17.81 -17.82,-18.71 -24.93,-2.66 -46.3,-4.45 -46.3,-25.82 0,-15.13 28.51,-93.49 37.41,-118.42 26.71,-73 67.65,-190.52 95.27,-263.55 40.95,95.27 83.68,193.21 121.07,288.48" /><path
         id="path24"
         style="fill:#971a1f;fill-opacity:1;fill-rule:nonzero;stroke:none"
         d="m 5798.62,1599.12 c -3.55,37.4 -22.25,43.63 -56.07,44.51 -14.26,0 -14.26,0 -14.26,17.81 0,17.8 1.79,17.8 17.8,17.8 16.04,0 58.77,-0.88 101.51,-0.88 42.73,-0.9 85.47,-1.78 99.71,-1.78 44.53,0 89.04,0.88 129.99,1.78 41.86,0 81.93,0.88 116.65,0.88 10.69,0 10.69,-7.11 10.69,-16.02 0,-10.68 -5.35,-34.72 -8.02,-74.79 -0.9,-14.25 -3.56,-35.62 -3.56,-47.18 0,-8.91 -4.46,-10.68 -19.59,-10.68 -14.24,0 -17.82,2.66 -18.7,10.68 -9.8,75.68 -11.58,90.8 -144.24,90.8 -16.92,0 -69.45,0 -77.46,-8.9 -5.35,-5.34 -6.23,-24.03 -6.23,-37.38 -0.89,-49.87 -0.89,-106.85 0,-156.72 164.71,-0.89 174.51,6.24 179.86,48.08 3.55,24.05 3.55,24.05 22.25,24.05 8.01,0 16.93,-2.67 16.93,-8.91 0,-13.35 -1.8,-66.78 -1.8,-77.46 0,-15.14 1.8,-83.7 1.8,-97.04 0,-11.57 -4.46,-13.37 -16.05,-13.37 -10.67,0 -17.8,0 -18.69,11.58 -4.44,32.95 -7.12,49.86 -33.84,57.88 -30.26,8.89 -69.44,8.89 -152.23,8.89 0,-31.15 0,-144.23 2.65,-172.73 1.79,-31.15 3.58,-47.17 71.24,-47.17 141.57,0 148.69,24.92 181.63,112.17 2.67,7.12 14.24,7.12 24.05,3.57 8.9,-2.68 16.01,-8.02 16.01,-13.36 0,-12.46 -13.36,-72.12 -32.94,-140.67 -1.78,-7.12 -7.12,-13.35 -16.92,-13.35 -14.24,0 -64.99,0.87 -121.08,1.76 -56.1,0 -119.31,0.91 -159.38,0.91 -36.49,0 -67.66,-0.91 -93.48,-0.91 -25.82,-0.89 -46.3,-1.76 -62.33,-1.76 -10.68,0 -10.68,1.76 -10.68,16.91 0,16.91 1.78,17.8 23.14,19.59 45.41,3.55 48.98,26.7 51.64,58.75 3.37,40.35 3.57,150.26 3.57,206.58 0,123.76 -0.88,162.93 -3.57,186.08" /><path
         id="path26"
         style="fill:#971a1f;fill-opacity:1;fill-rule:nonzero;stroke:none"
         d="m 6552.02,1399.68 c 10.69,-1.79 20.47,-2.67 41.86,-2.67 58.76,0 121.07,3.56 121.07,116.63 0,128.22 -84.58,128.22 -127.31,128.22 -32.94,0 -33.83,-6.25 -34.73,-28.5 z m 182.52,-19.59 c 32.05,-56.98 86.38,-143.34 120.2,-179.86 51.65,-56.08 86.36,-56.08 103.29,-56.08 8.01,0 9.78,0 9.78,-14.25 0,-14.26 0,-16.03 -10.68,-19.59 -13.35,-4.46 -38.27,-11.57 -69.44,-11.57 -97.94,0 -148.7,66.78 -164.72,88.15 -40.07,51.63 -73.91,113.07 -96.15,170.04 -32.06,-2.66 -49.87,-1.77 -75.7,-0.88 0.9,-48.98 0.9,-72.12 0.9,-104.17 0,-94.38 5.34,-105.06 70.33,-105.06 11.59,0 13.36,-5.35 13.36,-19.59 0,-9.8 0,-16.03 -8.89,-16.03 -11.59,0 -108.64,0.88 -138.91,0.88 -56.97,0 -113.08,-0.88 -128.2,-0.88 -7.12,0 -7.12,9.8 -7.12,18.7 0,12.47 1.77,16.03 22.24,17.81 49.88,6.23 51.65,42.74 52.54,80.13 3.57,69.45 3.57,175.4 3.57,245.73 0,32.95 0,120.2 -7.13,142.47 -8.02,23.14 -19.59,24.04 -57.87,27.6 -11.58,0.89 -11.58,2.66 -11.58,18.7 0,16.91 8.01,16.91 17.82,16.91 l 88.13,-0.89 c 92.6,-0.9 170.95,6.23 203.89,6.23 123.77,0 186.08,-65.88 186.08,-149.59 0,-113.07 -91.7,-146 -115.74,-154.91" /><path
         id="path28"
         style="fill:#971a1f;fill-opacity:1;fill-rule:nonzero;stroke:none"
         d="m 2414.74,932.57 c 32.67,0 64.79,-4.429 96.9,-7.75 3.33,-0.558 8.87,3.321 12.74,3.321 4.43,0 8.31,-1.11 8.31,-3.321 0,-6.101 -5.54,-32.679 -6.09,-39.32 -2.77,-22.711 -3.32,-33.781 -4.43,-52.051 0,-4.98 -2.22,-6.09 -8.31,-6.09 -8.86,0 -11.07,1.661 -12.73,14.95 -3.88,33.781 -13.85,43.742 -23.26,49.273 -17.17,11.629 -50.4,16.078 -73.66,16.078 -74.2,0 -131.23,-49.851 -131.23,-152.301 0,-110.75 62.57,-163.898 136.22,-163.898 64.79,0 86.94,33.769 104.11,60.359 2.22,3.321 3.88,3.871 5.53,3.871 2.22,0 13.29,-1.109 13.29,-6.101 0,-0.551 -11.62,-40.418 -12.73,-46.5 -4.98,-17.18 -5.54,-19.391 -9.97,-21.051 -18.83,-7.738 -64.24,-13.848 -104.66,-13.848 -43.19,0 -95.8,7.758 -136.78,39.891 -53.71,41.508 -62.02,105.199 -62.02,140.09 0,94.137 60.91,184.398 208.77,184.398" /><path
         id="path30"
         style="fill:#971a1f;fill-opacity:1;fill-rule:nonzero;stroke:none"
         d="m 3130.73,593.66 c 52.61,0 119.06,33.231 119.06,142.328 0,105.203 -60.36,171.114 -137.33,171.114 -85.83,0 -118.5,-70.883 -118.5,-143.981 0,-105.211 61.46,-169.461 136.77,-169.461 m -4.43,338.922 c 109.09,0 188.83,-72.551 188.83,-179.441 0,-102.442 -77.53,-184.95 -199.35,-184.95 -121.27,0 -187.17,84.739 -187.17,178.879 0,138.442 119.61,185.512 197.69,185.512" /><path
         id="path32"
         style="fill:#971a1f;fill-opacity:1;fill-rule:nonzero;stroke:none"
         d="m 3810.4,612.488 c 3.89,-9.398 13.86,-9.957 36.01,-9.957 27.67,0 76.4,0 94.67,13.848 13.85,9.973 23.82,34.883 27.14,49.832 1.12,5.551 2.79,8.301 6.11,8.301 12.16,0 13.83,-3.321 13.83,-7.742 0,-13.848 -6.09,-44.872 -14.95,-76.43 -3.87,-14.379 -4.43,-16.61 -9.42,-16.61 -12.18,0 -24.37,2.231 -132.34,2.231 -114.62,0 -123.49,-2.231 -128.48,-2.231 -4.98,0 -6.09,1.661 -6.09,7.75 0,8.86 0.55,8.86 11.08,9.981 32.67,3.328 34.33,22.687 36.54,47.609 2.79,36.008 2.79,106.321 2.79,137.352 0,57.566 0,99.117 -3.33,114.617 -3.88,16.051 -14.96,17.16 -34.9,19.371 -6.09,0.57 -6.64,1.11 -6.64,7.75 0,8.309 1.11,8.871 7.76,8.871 25.46,0 42.09,-1.66 67.01,-1.66 32.65,0 54.81,1.66 73.63,1.66 4.43,0 6.65,-1.101 6.65,-7.199 0,-8.852 -0.56,-9.973 -11.06,-10.512 -21.06,-1.121 -34.91,-5.55 -37.67,-29.922 -3.32,-27.109 -3.32,-102.437 -3.32,-155.589 0,-19.93 0,-99.118 4.98,-111.321" /><path
         id="path34"
         style="fill:#971a1f;fill-opacity:1;fill-rule:nonzero;stroke:none"
         d="m 4479.09,612.488 c 3.9,-9.398 13.86,-9.957 36.01,-9.957 27.67,0 76.4,0 94.68,13.848 13.85,9.973 23.81,34.883 27.14,49.832 1.11,5.551 2.78,8.301 6.1,8.301 12.17,0 13.84,-3.321 13.84,-7.742 0,-13.848 -6.1,-44.872 -14.96,-76.43 -3.87,-14.379 -4.43,-16.61 -9.41,-16.61 -12.19,0 -24.36,2.231 -132.35,2.231 -114.62,0 -123.49,-2.231 -128.48,-2.231 -4.98,0 -6.08,1.661 -6.08,7.75 0,8.86 0.55,8.86 11.07,9.981 32.67,3.328 34.34,22.687 36.54,47.609 2.79,36.008 2.79,106.321 2.79,137.352 0,57.566 0,99.117 -3.33,114.617 -3.87,16.051 -14.95,17.16 -34.9,19.371 -6.09,0.57 -6.64,1.11 -6.64,7.75 0,8.309 1.11,8.871 7.77,8.871 25.46,0 42.08,-1.66 67,-1.66 32.66,0 54.81,1.66 73.63,1.66 4.44,0 6.65,-1.101 6.65,-7.199 0,-8.852 -0.55,-9.973 -11.06,-10.512 -21.05,-1.121 -34.89,-5.55 -37.67,-29.922 -3.32,-27.109 -3.32,-102.437 -3.32,-155.589 0,-19.93 0,-99.118 4.98,-111.321" /><path
         id="path36"
         style="fill:#971a1f;fill-opacity:1;fill-rule:nonzero;stroke:none"
         d="m 5076.58,884.391 c -1.66,19.941 -11.06,24.371 -32.66,24.918 -8.3,0 -9.42,0.55 -9.42,8.312 0,8.848 4.44,9.418 8.87,9.418 27.68,0 46.5,-1.66 79.74,-1.66 63.12,0 140.66,1.66 178.86,1.66 6.09,0 11.08,-0.57 11.08,-4.437 0,-2.211 -3.33,-28.801 -3.87,-34.332 -1.12,-12.188 -1.12,-15.508 -2.78,-44.86 0,-3.871 -1.11,-4.98 -9.42,-4.98 -8.85,0 -8.85,1.109 -9.96,12.179 -4.42,39.332 -5.55,52.063 -90.25,52.063 -9.43,0 -51.52,0 -56.51,-5.551 -2.76,-2.762 -2.76,-23.25 -2.76,-36.539 -0.55,-14.391 0,-77.523 0,-90.812 118.51,-0.559 118.51,1.66 124.04,38.761 1.12,4.981 1.12,6.641 9.42,6.641 7.19,0 7.75,-1.66 7.75,-4.981 0,-19.382 -1.09,-36.55 -1.09,-60.921 0,-23.25 1.09,-38.758 1.09,-44.86 0,-4.98 -0.56,-6.64 -7.2,-6.64 -9.4,0 -9.4,1.109 -9.97,9.421 -1.66,13.84 -4.42,29.34 -23.81,34.329 -17.16,4.429 -33.23,4.98 -100.78,4.98 0,-20.48 0,-119.051 2.77,-130.668 2.76,-11.641 11.07,-15.512 47.62,-15.512 72.54,0 94.69,7.75 113.53,53.7 6.08,15.519 7.19,18.269 9.97,18.269 2.75,0 13.84,-1.66 13.84,-7.187 0,-7.192 -9.97,-52.051 -17.18,-75.864 -3.88,-13.84 -3.88,-15.5 -11.61,-15.5 -8.87,0 -27.15,1.66 -152.3,1.66 -62.57,0 -89.7,-1.66 -104.11,-1.66 -9.4,0 -9.4,0 -9.4,8.313 0,7.738 0,7.738 12.18,8.847 22.7,2.223 31.01,6.641 33.78,34.891 2.21,28.231 2.21,104.66 2.21,133.449 0,29.91 0,101.344 -1.67,125.153" /><path
         id="path38"
         style="fill:#971a1f;fill-opacity:1;fill-rule:nonzero;stroke:none"
         d="m 5803.1,897.121 c 43.2,24.379 91.92,35.449 141.76,35.449 19.93,0 37.12,-1.66 50.95,-3.308 14.4,-2.231 25.47,-3.891 32.12,-3.891 2.76,0 4.43,1.109 6.08,2.211 2.22,0.559 3.88,1.68 6.1,1.68 6.65,0 7.19,-2.782 7.19,-7.762 0,-17.73 0,-31.57 0.57,-47.078 0.55,-5.524 2.76,-32.113 2.76,-34.32 0,-3.891 0,-6.641 -13.29,-6.641 -4.98,0 -4.98,1.09 -7.75,11.609 -6.65,28.239 -11.63,34.891 -17.72,39.871 -15.51,12.75 -50.95,20.489 -83.06,20.489 -104.11,0 -143.42,-73.629 -143.42,-152.282 0,-56.488 16.06,-104.648 55.92,-132.91 27.68,-19.929 59.8,-27.117 91.37,-27.117 15.5,0 54.82,1.668 62.57,16.051 3.89,7.75 5.55,22.148 5.55,59.258 0,63.121 -1.66,63.121 -58.15,65.902 -3.88,0.539 -4.98,1.668 -4.98,8.309 0,7.191 1.1,10.507 5.53,10.507 13.29,0 37.66,-1.109 76.42,-1.109 22.15,0 43.75,1.109 65.9,1.109 2.21,0 4.44,0 4.44,-3.867 0,-7.761 0,-11.621 -6.1,-12.75 -21.6,-4.429 -22.7,-16.609 -23.82,-26.582 -0.54,-8.859 -1.66,-45.949 -1.66,-57.027 0,-52.613 3.88,-59.262 3.88,-64.793 0,-2.219 0,-3.867 -12.73,-6.09 -42.09,-7.738 -75.86,-13.848 -124.05,-13.848 -64.23,0 -101.89,13.297 -131.24,30.457 -67.55,40.422 -74.2,114.633 -74.2,142.872 0,67.55 31.57,126.25 83.06,155.601" /><path
         id="path40"
         style="fill:#971a1f;fill-opacity:1;fill-rule:nonzero;stroke:none"
         d="m 6524.07,884.391 c -1.66,19.941 -11.06,24.371 -32.66,24.918 -8.31,0 -9.42,0.55 -9.42,8.312 0,8.848 4.44,9.418 8.87,9.418 27.68,0 46.5,-1.66 79.73,-1.66 63.13,0 140.66,1.66 178.86,1.66 6.1,0 11.09,-0.57 11.09,-4.437 0,-2.211 -3.33,-28.801 -3.88,-34.332 -1.11,-12.188 -1.11,-15.508 -2.77,-44.86 0,-3.871 -1.11,-4.98 -9.42,-4.98 -8.86,0 -8.86,1.109 -9.96,12.179 -4.42,39.332 -5.55,52.063 -90.25,52.063 -9.44,0 -51.52,0 -56.51,-5.551 -2.76,-2.762 -2.76,-23.25 -2.76,-36.539 -0.56,-14.391 0,-77.523 0,-90.812 118.51,-0.559 118.51,1.66 124.04,38.761 1.12,4.981 1.12,6.641 9.42,6.641 7.19,0 7.75,-1.66 7.75,-4.981 0,-19.382 -1.1,-36.55 -1.1,-60.921 0,-23.25 1.1,-38.758 1.1,-44.86 0,-4.98 -0.56,-6.64 -7.2,-6.64 -9.42,0 -9.42,1.109 -9.97,9.421 -1.66,13.84 -4.42,29.34 -23.82,34.329 -17.15,4.429 -33.22,4.98 -100.78,4.98 0,-20.48 0,-119.051 2.78,-130.668 2.76,-11.641 11.07,-15.512 47.61,-15.512 72.55,0 94.7,7.75 113.54,53.7 6.08,15.519 7.19,18.269 9.96,18.269 2.76,0 13.85,-1.66 13.85,-7.187 0,-7.192 -9.97,-52.051 -17.18,-75.864 -3.88,-13.84 -3.88,-15.5 -11.61,-15.5 -8.87,0 -27.15,1.66 -152.3,1.66 -62.57,0 -89.7,-1.66 -104.11,-1.66 -9.4,0 -9.4,0 -9.4,8.313 0,7.738 0,7.738 12.18,8.847 22.7,2.223 31,6.641 33.78,34.891 2.21,28.231 2.21,104.66 2.21,133.449 0,29.91 0,101.344 -1.67,125.153" /><path
         id="path42"
         style="fill:#971a1f;fill-opacity:1;fill-rule:nonzero;stroke:none"
         d="m 1721.97,630.98 h -7.54 v 26.231 h -0.09 l -8.99,-26.231 h -5.75 l -8.64,26.231 h -0.1 V 630.98 h -7.53 v 34.2 h 11.4 l 7.87,-22.321 h 0.1 l 7.92,22.321 h 11.35 z m -42.45,27.532 h -9.76 V 630.98 h -7.53 v 27.532 h -9.76 v 6.668 h 27.05 z m -62.51,200.179 c -34.39,-12.953 -68.06,-23.23 -103.38,-31.339 v 122.097 c 16.7,4.59 34.45,9.711 50.34,15.461 h -0.04 c 26.45,12.891 52.61,41.96 72.5,100.4 11.28,31.66 19.81,34.43 51.22,29.24 21.59,-3.57 28.99,-7.59 26.96,-19.82 -3.48,-45.52 -6.03,-73.03 -5.43,-130.39 -0.73,-16.629 8.11,-85.141 5.63,-100.09 -0.89,-5.441 -15.08,-5.891 -30.79,-3.289 -13.73,2.277 -31.79,15.039 -43.8,15.629 -7.73,0.711 -15.47,1.398 -23.21,2.101 m -9.6,-292.832 c -12.2,0 -44.75,3.532 -151.9,3.532 -151.91,0 -202.08,-3.532 -221.08,-3.532 -8.14,0 -14.91,3.532 -14.91,28.25 0,22.961 1.35,24.743 25.77,26.5 66.46,8.84 81.38,40.621 89.5,95.371 3.52,22.809 5.51,40.29 6.76,74.872 v 0.097 c 0.14,4.301 0.3,8.801 0.43,13.66 -0.09,0 -0.16,0 -0.23,-0.007 l 1.71,118.609 c 0.02,0.008 0.03,0.008 0.05,0.008 0.02,2.222 0.03,4.492 0.04,6.769 v 0.024 c 0.24,37.847 0.46,83.778 0.75,140.248 H 887.227 c 0,-34.5 0,-64.57 0.019,-91.088 -56.621,7.699 -143.051,52.338 -145.476,53.598 0.335,85.28 0.335,172.99 0.335,228.97 0,8.56 0,18.44 -0.011,29.25 -0.067,-0.03 -0.125,-0.07 -0.199,-0.1 l -0.758,128.52 c 0.078,0.03 0.148,0.06 0.23,0.09 -0.113,8.66 -0.238,17.24 -0.383,25.69 l -0.007,0.36 c -0.774,45.34 -2.082,86.33 -4.293,109.38 -6.778,58.28 -24.411,74.18 -82.731,83.01 -25.769,3.53 -28.48,3.53 -28.48,22.96 0,31.79 2.711,31.79 16.273,31.79 28.481,0 154.609,-3.54 180.379,-3.54 27.133,0 145.121,3.54 169.539,3.54 16.266,0 18.986,0 18.986,-24.73 0,-24.72 0,-28.25 -27.127,-31.79 -51.535,-5.3 -81.367,-22.96 -89.507,-91.84 -1.598,-15.83 -2.821,-33.09 -3.75,-52.66 l -0.012,-0.01 v -0.3 c -0.41,-8.55 -0.766,-17.5 -1.07,-27.04 0.054,0.01 0.039,0.02 0,0.03 l -1.766,-121.75 c -0.145,-0.04 0.148,-0.07 0,-0.11 -0.039,-10.56 -0.082,-21.58 -0.105,-33.08 l -0.047,-2.86 h 0.039 c -0.078,-33.53 -0.078,-71.13 -0.078,-113.69 142.413,-1.77 368.913,0 457.073,0 0,64.78 0,114.35 -0.09,155.06 0,0 87.47,-6.82 144.12,-24.36 v 0 c -0.1,-17.27 -0.19,-33.67 -0.27,-52.99 -0.45,-135 -0.6,-237.49 -0.25,-316.281 l 0.01,-2.527 c 0.01,-1.563 0.02,-3.102 0.03,-4.653 l 0.65,-134.82 v 0.223 c 1.52,-59.442 5.13,-92.563 9.05,-115.953 10.86,-68.879 32.56,-70.649 105.79,-77.707 17.64,0 18.98,-1.782 18.98,-26.493 0,-22.968 -6.77,-26.5 -14.91,-26.5 M 887.926,833.84 v -0.02 0.02 c -108.711,23.82 -147.367,44.84 -147.367,44.84 l -0.012,-0.239 c 0,0.09 0,0.168 0.012,0.25 -9.782,3.879 -19.383,7.879 -28.735,12.028 -145.769,64.59 -226.047,156.291 -226.047,258.221 0,101.93 80.278,193.63 226.047,258.22 1.582,0.7 3.219,1.37 4.813,2.07 v -131.41 c -71.34,-39.46 -112.699,-86.05 -112.699,-128.88 0,-47.61 51.085,-99.89 137.707,-141.83 v -0.01 c 75.742,-38.409 145.621,-51.69 145.621,-51.69 v 0.012 c 92.632,-23.602 198.564,-36.192 309.374,-36.192 44.65,0 83.9,0.801 119.02,2.45 V 803.309 c -36.04,-1.547 -75.31,-2.239 -119.02,-2.239 -108.72,0 -213.851,11.352 -308.714,32.77 M 995.727,565.859 c -16.27,0 -42.039,3.532 -199.372,3.532 -69.167,0 -135.617,-3.532 -160.027,-3.532 -10.855,0 -16.285,5.301 -16.285,35.332 0,15.879 2.711,17.661 29.844,21.188 82.73,10.59 85.441,81.25 89.508,197.812 0.285,9.489 0.523,20.481 0.742,32.629 l -0.008,-0.55 c 36.516,-16.27 133.988,-39.801 148.289,-43.2 0.777,-31.031 2.078,-52.929 4.238,-82.48 5.418,-86.551 29.84,-104.211 97.653,-107.738 23.051,0 25.761,0 25.761,-24.743 0,-26.48 -8.14,-28.25 -20.343,-28.25 m 200.913,930.951 c 51.77,0 100.18,-1.94 146.08,-5.97 56.66,-0.66 148.22,-22.17 148.22,-22.17 l 0.01,0.01 c 0,-0.01 0,-0.02 -0.01,-0.03 43.05,-9.41 84.43,-21.3 125.06,-35.87 8.07,0.72 24.22,2.19 24.22,2.19 0,0 30.07,13.35 43.8,15.62 15.71,2.6 29.9,2.15 30.79,-3.29 2.48,-14.95 -6.36,-83.45 -5.63,-100.08 -0.6,-57.37 1.95,-84.88 5.43,-130.39 2.03,-12.24 -5.37,-16.26 -26.96,-19.82 -31.41,-5.2 -39.94,-2.42 -51.22,29.23 -19.89,58.45 -46.05,86.85 -72.5,99.74 h 0.03 c -23.02,7.87 -48.03,15.28 -75.46,21.93 0,-0.43 -0.01,-0.87 -0.01,-1.3 l 0.01,1.31 c 0,0 -54.41,13.62 -144.34,23.91 v -0.01 c -44.11,4.35 -92.96,6.83 -147.52,6.83 -100.88,0 -197.702,-10.47 -284.156,-30.16 l -0.714,120.65 c 88.52,18.11 185.19,27.67 284.87,27.67 m 47.29,195.88 c 29.83,0 160.03,-3.54 187.16,-3.54 27.13,0 147.84,3.54 172.25,3.54 13.56,0 14.92,-3.53 14.92,-24.73 -1.36,-26.49 -5.42,-28.25 -44.75,-35.32 -55.72,-9.52 -74.53,-32.7 -81.28,-139.59 -54.18,12.02 -128.9,19.02 -150.36,20.88 -0.46,10.21 -1.01,20.07 -1.65,30.4 -2.71,65.35 -21.69,88.31 -88.15,93.61 -24.41,1.77 -25.78,1.77 -25.78,28.26 0,22.96 1.37,26.49 17.64,26.49 m -127.4,216.14 c 0,0 -187.913,-125.83 -740.135,-168.46 V 800.691 c 0,0 17.082,-249.64 370.058,-391.711 0,0 175,-80.511 370.077,-192.808 195.06,112.297 370.05,192.808 370.05,192.808 352.98,142.071 370.07,391.711 370.07,391.711 v 939.679 c -552.23,42.63 -740.12,168.46 -740.12,168.46" /></g></g></svg>